<svg width="66" height="70" viewBox="0 0 66 70" fill="none" xmlns="http://www.w3.org/2000/svg">
<path d="M32 6L9.45774 0.982069L16.3832 23.0132L32 6ZM28.5 59C20.5319 59 14.4575 56.973 10.389 53.2396C6.34873 49.532 4 43.8774 4 36H0C0 44.6912 2.617 51.5365 7.68456 56.1868C12.724 60.8112 19.8995 63 28.5 63V59ZM4 36C4 26.499 8.73022 18.1026 15.9731 13.0373L13.6807 9.75938C5.41356 15.541 0 25.1382 0 36H4Z" fill="#9D6CFF"/>
<path d="M34 64L56.5423 69.0179L49.6168 46.9868L34 64ZM38.5 11C46.4673 11 52.2633 13.0256 56.07 16.7217C59.8663 20.4078 62 26.0631 62 34H66C66 25.3684 63.6679 18.5237 58.8564 13.8519C54.0552 9.19011 47.1012 7 38.5 7V11ZM62 34C62 43.501 57.2698 51.8974 50.0269 56.9627L52.3193 60.2406C60.5864 54.459 66 44.8618 66 34H62Z" fill="#9D6CFF"/>
</svg>
