<svg width="1298" height="1286" viewBox="0 0 1298 1286" fill="none" xmlns="http://www.w3.org/2000/svg">
    <g fill="currentColor">
        <path d="M689.8 1007.36C644.524 1028.32 598.8 1047.93 552.76 1066.2L569.733 1285.77C638.785 1254.45 799 1157.24 926.04 893.279C871.201 922.393 816.352 948.581 769.52 970.929C743.254 983.518 716.602 995.58 689.806 1007.36L689.8 1007.36Z" />
        <path d="M815.76 382.387C791.224 382.387 766.698 391.626 748.02 410.084C729.994 427.923 720.056 451.62 720.056 476.824C720.056 502.021 729.983 525.725 748.029 543.564C785.379 580.501 846.166 580.491 883.496 543.564C883.496 543.554 883.507 543.554 883.507 543.554C901.533 525.715 911.48 502.018 911.48 476.814C911.48 451.616 901.542 427.912 883.507 410.073C864.84 391.615 840.304 382.385 815.761 382.385L815.76 382.387Z" />
        <path d="M349.453 462.747C364.328 432.924 380.213 401.747 397.229 370.408C130.563 495.835 32.0558 654.008 0.21582 722.461L220.562 739.112C243.614 682.175 268.75 625.664 296.073 569.925C312.661 535.961 330.401 499.685 349.448 462.748L349.453 462.747Z" />
        <path d="M914.027 33.9479L1263.4 379.428C1280.5 311.901 1289.8 244.215 1294.2 180.815C1294.57 175.502 1294.94 170.2 1295.24 164.841C1295.7 156.815 1296.08 148.893 1296.39 141.029C1296.74 132.003 1297.02 122.915 1297.19 113.789C1297.32 107.513 1297.42 101.3 1297.45 95.1639C1297.53 82.6117 1297.5 70.0025 1297.27 57.2892C1297.21 54.4143 1297.14 51.6017 1297.07 48.7632C1296.68 33.4872 1296.14 18.1379 1295.28 2.66453C1193.44 -3.4552 1054.16 -1.29387 914.028 33.9565L914.027 33.9479Z" />
        <path d="M1106.33 687.12C1113.39 679.36 1120.28 671.423 1126.96 663.235C1127.83 662.162 1128.78 661.11 1129.65 660.021C1136.68 651.261 1143.42 642.172 1150.03 632.933C1152.32 629.735 1154.57 626.506 1156.79 623.272C1161.92 615.824 1166.89 608.209 1171.74 600.46C1174.87 595.46 1177.89 590.408 1180.87 585.345C1184.4 579.345 1187.85 573.272 1191.24 567.105C1194.19 561.694 1197.13 556.282 1199.93 550.802C1202.02 546.729 1203.99 542.542 1206.02 538.401C1211.38 527.391 1216.53 516.287 1221.32 505.079C1222.07 503.318 1222.81 501.542 1223.56 499.766C1232.09 479.354 1239.68 458.667 1246.47 437.829L855.11 50.802C755.386 82.99 670.87 130.214 602.99 191.362C601.24 192.935 599.49 194.523 597.751 196.122C588.876 204.31 580.215 212.685 571.939 221.362C569.001 224.461 566.163 227.748 563.277 230.951C497.903 303.211 443.179 397.524 396.451 488.218C386.039 509.119 376.139 529.354 366.951 548.182C330.524 622.468 297.377 699.395 268.399 776.848C266.362 782.312 262.612 786.697 257.961 789.734C237.472 842.307 218.81 895.171 202.3 948.107L340.153 1084.43C395.164 1067.65 450.101 1048.65 504.7 1027.74C507.538 1024.61 510.887 1021.9 515.075 1020.37C566.689 1001.51 618.023 980.661 668.621 958.427C678.861 953.677 689.111 948.953 699.299 944.062C828.601 882.912 975.019 813.661 1075.33 718.903C1083.84 710.892 1092.02 702.491 1100.07 693.929C1102.19 691.669 1104.26 689.393 1106.34 687.122L1106.33 687.12ZM921.187 581.344C892.114 610.104 853.911 624.48 815.723 624.48C777.535 624.48 739.348 610.105 710.275 581.355C682.051 553.443 666.515 516.328 666.515 476.828C666.515 437.328 682.067 400.213 710.264 372.301C768.426 314.791 863.038 314.812 921.171 372.291C949.411 400.203 964.947 437.318 964.947 476.818C964.947 516.307 949.406 553.432 921.182 581.344L921.187 581.344Z" />
        <path d="M147.088 1138.72L198.905 982.058L302.981 1084.64L147.088 1138.72Z" />
    </g>
</svg>
