<svg width="22" height="17" viewBox="0 0 22 17" fill="none" xmlns="http://www.w3.org/2000/svg">
    <g fill="currentColor" class="jp-icon3 jp-icon-selectable">
        <path d="M21.002 11.333C21.002 12.8953 19.72 14.167 18.1445 14.167H11.4785V15.583H15.2881V17H6.71582V15.583H10.0498V14.167H3.85938C2.28386 14.167 1.00196 12.8961 1.00195 11.333V8.31152L2.43066 9.35938V11.333C2.43067 12.1141 3.07162 12.75 3.85938 12.75H7.05371L7.31738 12.9434C7.32993 12.9526 7.34375 12.9599 7.35645 12.9688C7.38856 12.9912 7.42094 13.0128 7.4541 13.0332C7.47857 13.0483 7.50343 13.0623 7.52832 13.0762C7.55922 13.0934 7.59044 13.1095 7.62207 13.125C7.6531 13.1402 7.68429 13.1545 7.71582 13.168C7.73979 13.1782 7.76379 13.188 7.78809 13.1973C7.82539 13.2115 7.86256 13.2254 7.90039 13.2373C7.92719 13.2457 7.95436 13.2525 7.98145 13.2598C8.01712 13.2694 8.05288 13.2776 8.08887 13.2852C8.11196 13.29 8.13497 13.2948 8.1582 13.2988C8.19981 13.306 8.24139 13.3119 8.2832 13.3164C8.30597 13.3189 8.32873 13.3206 8.35156 13.3223C8.39132 13.3252 8.43093 13.3276 8.4707 13.3281C8.49872 13.3286 8.52665 13.3279 8.55469 13.3271C8.58633 13.3263 8.61788 13.3256 8.64941 13.3232C8.68337 13.3207 8.71713 13.3167 8.75098 13.3125C8.78304 13.3084 8.81485 13.3034 8.84668 13.2979C8.87705 13.2925 8.90732 13.287 8.9375 13.2803C8.96726 13.2736 8.99692 13.2668 9.02637 13.2588C9.06575 13.2481 9.1047 13.2358 9.14355 13.2227C9.16327 13.216 9.18263 13.2085 9.20215 13.2012C9.23926 13.1873 9.27604 13.1725 9.3125 13.1562C9.34045 13.1439 9.36808 13.1309 9.39551 13.1172C9.42317 13.1033 9.45037 13.0885 9.47754 13.0732C9.51024 13.0549 9.54245 13.0359 9.57422 13.0156C9.59691 13.0011 9.61935 12.9862 9.6416 12.9707C9.67361 12.9484 9.70451 12.9247 9.73535 12.9004C9.74815 12.8903 9.76277 12.8825 9.77539 12.8721L9.92285 12.75H18.1445C18.9323 12.75 19.5732 12.115 19.5732 11.333V4.77441L21.002 3.59277V11.333ZM18.1445 0C18.4183 0 18.6828 0.0406656 18.9336 0.112305L17.3564 1.41699H3.85938C3.07162 1.41699 2.43067 2.05288 2.43066 2.83398V4.39941L2.18262 4.21777L2.01172 4.10547C1.69721 3.92062 1.34804 3.83112 1.00195 3.83105V2.83398C1.00196 1.2708 2.28386 0 3.85938 0H18.1445Z"/>
    </g>
    <path d="M1 5.83051L4.74999 8.58062L8.49999 11.3307" stroke="#155239" stroke-width="2" stroke-linecap="round"/>
    <path d="M21.0009 1L8.50088 11.3307" stroke="#155239" stroke-width="2" stroke-linecap="round"/>
</svg>