<svg width="21" height="17" viewBox="0 0 21 17" fill="none" xmlns="http://www.w3.org/2000/svg">
    <g fill="currentColor" class="jp-icon3 jp-icon-selectable">
        <path d="M21.002 2.83398V11.333C21.002 12.8953 19.72 14.167 18.1445 14.167H11.4785V15.583H15.2881V17H6.71582V15.583H10.0498V14.167H3.85938C3.78015 14.167 3.70164 14.1606 3.62402 14.1543L5.73145 12.75H18.1445C18.9323 12.75 19.5732 12.115 19.5732 11.333V3.52148L20.9883 2.57715C20.996 2.66182 21.002 2.74736 21.002 2.83398ZM17.6455 0L15.5195 1.41699H3.85938C3.07162 1.41699 2.43067 2.05288 2.43066 2.83398V10.1416L1.00195 11.0938V2.83398C1.00196 1.2708 2.28386 0 3.85938 0H17.6455Z"/>
    </g>
    <path d="M1 13.5L20.5 0.5" stroke="#611818" stroke-width="2" stroke-linecap="round"/>
</svg>
