<?xml version="1.0" encoding="UTF-8"?>
<svg width="1200pt" height="1200pt" version="1.1" viewBox="0 0 1200 1200" xmlns="http://www.w3.org/2000/svg">
 <g fill="currentColor" class="jp-icon3 jp-icon-selectable">
  <path d="m735.61 979.22h-271.22c-19.781 0-33.844 14.391-33.844 34.688s14.156 34.688 33.844 34.688h271.22c19.781 0 33.844-14.391 33.844-34.688s-14.156-34.688-33.844-34.688z"/>
  <path d="m735.61 891.84h-271.22c-19.781 0-33.844 13.922-33.844 33.375 0 16.688 14.156 33.375 33.844 33.375h271.22c19.781 0 33.844-16.688 33.844-33.375 0-19.453-14.156-33.375-33.844-33.375z"/>
  <path d="m701.86 1070.6h-203.86c-5.625 0-8.5312 2.8594-2.8594 8.625l51 51.938c5.625 2.8594 14.156 8.625 19.781 8.625h67.922c5.625 0 14.156-5.7656 19.781-8.625l51-51.938c5.625-5.7656 2.8594-8.625-2.8594-8.625z"/>
  <path d="m600 60c-187.78 0-341.53 153.84-341.53 341.76 0 74.062 22.781 145.22 62.625 199.31 48.375 79.781 108.14 162.37 108.14 250.69v5.625c0 5.625 5.625 11.391 11.391 11.391h318.71c5.625 0 11.391-5.625 11.391-11.391v-5.625c0-91.078 65.391-176.53 113.86-256.31 36.938-54.141 56.859-122.53 56.859-193.69 0-187.92-153.71-341.76-341.53-341.76zm-23.531 138.14c-98.391 0-178.45 80.062-178.45 178.45 0 10.453-8.5312 18.938-18.938 18.938-10.453 0-18.938-8.5312-18.938-18.938 0-119.3 97.078-216.37 216.37-216.37 10.453 0 18.938 8.5312 18.938 18.938 0 10.453-8.5312 18.938-18.938 18.938z"/>
 </g>
</svg>
