<svg width="33" height="33" viewBox="0 0 33 33" fill="none" xmlns="http://www.w3.org/2000/svg">
    <g fill="currentColor">
        <path d="M27.8204 5.193C24.7983 2.1709 20.7805 0.506836 16.5068 0.506836C7.78625 0.506836 0.506836 7.78625 0.506836 16.5068C0.506836 25.2274 7.78625 32.5068 16.5068 32.5068C25.2274 32.5068 32.5068 25.2274 32.5068 16.5068C32.5068 12.2332 30.8426 8.2151 27.8207 5.19329L27.8204 5.193ZM23.627 21.5962L21.7553 17.7403L23.4737 16.9062L24.3955 18.8053L24.4401 18.6209C24.608 17.9267 24.6932 17.2155 24.6932 16.5068C24.6932 11.6336 20.7854 7.66893 15.9819 7.66893C11.1788 7.66893 7.27066 11.6336 7.27066 16.5068C7.27066 21.3572 11.1414 25.3073 15.9137 25.3444V27.2546C10.0885 27.217 5.36066 22.41 5.36066 16.5067C5.36066 10.5804 10.1253 5.75855 15.9819 5.75855C21.8385 5.75855 26.6032 10.5801 26.6032 16.5067C26.6032 17.2903 26.5175 18.0775 26.3484 18.8468L26.315 18.999L27.9027 18.0676L28.8693 19.7151L24.9693 22.003C24.3869 22.4896 23.6689 21.9597 23.6268 21.5962L23.627 21.5962Z"/>
    </g>
</svg>
