<svg width="38" height="43" viewBox="0 0 38 43" fill="none" xmlns="http://www.w3.org/2000/svg">
<g filter="url(#filter0_d_2200_1028)">
<path d="M19 0C13.7441 0 9.45455 4.28955 9.45455 9.54545V12.2727H6.72727C5.22045 12.2727 4 13.4932 4 15V31.3636C4 32.8705 5.22045 34.0909 6.72727 34.0909H31.2727C32.7795 34.0909 34 32.8705 34 31.3636V15C34 13.4932 32.7795 12.2727 31.2727 12.2727H28.5455V9.54545C28.5455 4.46125 24.5044 0.366225 19.4847 0.098544C19.3305 0.0364234 19.1662 0.00302613 19 0ZM19 2.72727C22.7823 2.72727 25.8182 5.76318 25.8182 9.54545V12.2727H12.1818V9.54545C12.1818 5.76318 15.2177 2.72727 19 2.72727ZM10.8182 20.4545C12.325 20.4545 13.5455 21.675 13.5455 23.1818C13.5455 24.6873 12.325 25.9091 10.8182 25.9091C9.31136 25.9091 8.09091 24.6873 8.09091 23.1818C8.09091 21.675 9.31136 20.4545 10.8182 20.4545ZM19 20.4545C20.5068 20.4545 21.7273 21.675 21.7273 23.1818C21.7273 24.6873 20.5068 25.9091 19 25.9091C17.4932 25.9091 16.2727 24.6873 16.2727 23.1818C16.2727 21.675 17.4932 20.4545 19 20.4545ZM27.1818 20.4545C28.6886 20.4545 29.9091 21.675 29.9091 23.1818C29.9091 24.6873 28.6886 25.9091 27.1818 25.9091C25.675 25.9091 24.4545 24.6873 24.4545 23.1818C24.4545 21.675 25.675 20.4545 27.1818 20.4545Z" fill="#9D6CFF"/>
</g>
<defs>
<filter id="filter0_d_2200_1028" x="0" y="0" width="38" height="42.0898" filterUnits="userSpaceOnUse" color-interpolation-filters="sRGB">
<feFlood flood-opacity="0" result="BackgroundImageFix"/>
<feColorMatrix in="SourceAlpha" type="matrix" values="0 0 0 0 0 0 0 0 0 0 0 0 0 0 0 0 0 0 127 0" result="hardAlpha"/>
<feOffset dy="4"/>
<feGaussianBlur stdDeviation="2"/>
<feComposite in2="hardAlpha" operator="out"/>
<feColorMatrix type="matrix" values="0 0 0 0 0 0 0 0 0 0 0 0 0 0 0 0 0 0 0.25 0"/>
<feBlend mode="normal" in2="BackgroundImageFix" result="effect1_dropShadow_2200_1028"/>
<feBlend mode="normal" in="SourceGraphic" in2="effect1_dropShadow_2200_1028" result="shape"/>
</filter>
</defs>
</svg>
