<svg width="60" height="69" viewBox="0 0 60 69" fill="none" xmlns="http://www.w3.org/2000/svg">
<path d="M30 0C19.4882 0 10.9091 8.57909 10.9091 19.0909V24.5455H5.45455C2.44091 24.5455 0 26.9864 0 30V62.7273C0 65.7409 2.44091 68.1818 5.45455 68.1818H54.5455C57.5591 68.1818 60 65.7409 60 62.7273V30C60 26.9864 57.5591 24.5455 54.5455 24.5455H49.0909V19.0909C49.0909 8.9225 41.0089 0.732451 30.9695 0.197088C30.661 0.0728468 30.3325 0.00605226 30 0ZM30 5.45455C37.5645 5.45455 43.6364 11.5264 43.6364 19.0909V24.5455H16.3636V19.0909C16.3636 11.5264 22.4355 5.45455 30 5.45455ZM13.6364 40.9091C16.65 40.9091 19.0909 43.35 19.0909 46.3636C19.0909 49.3745 16.65 51.8182 13.6364 51.8182C10.6227 51.8182 8.18182 49.3745 8.18182 46.3636C8.18182 43.35 10.6227 40.9091 13.6364 40.9091ZM30 40.9091C33.0136 40.9091 35.4545 43.35 35.4545 46.3636C35.4545 49.3745 33.0136 51.8182 30 51.8182C26.9864 51.8182 24.5455 49.3745 24.5455 46.3636C24.5455 43.35 26.9864 40.9091 30 40.9091ZM46.3636 40.9091C49.3773 40.9091 51.8182 43.35 51.8182 46.3636C51.8182 49.3745 49.3773 51.8182 46.3636 51.8182C43.35 51.8182 40.9091 49.3745 40.9091 46.3636C40.9091 43.35 43.35 40.9091 46.3636 40.9091Z" fill="#9D6CFF"/>
</svg>
