<svg width="60" height="60" viewBox="0 0 60 60" fill="none" xmlns="http://www.w3.org/2000/svg">
<path d="M56.8156 3.1844C61.0615 7.43028 61.0615 14.3141 56.8156 18.56L53.5903 21.7853L38.2147 6.40975L41.44 3.1844C45.6859 -1.06147 52.5697 -1.06147 56.8156 3.1844ZM34.387 10.2374L49.7626 25.6129L21.3638 54.0117L3.93642 59.8411C1.60166 60.6221 -0.620755 58.3997 0.15885 56.0649L5.9883 38.6375L34.387 10.2374ZM11.5849 49.173L18.42 46.8044L13.2091 41.5935L10.8405 48.4692C10.7864 48.6181 10.6781 48.9564 10.8676 49.1324C11.0571 49.3219 11.4361 49.2271 11.5849 49.173Z" fill="#9D6CFF"/>
</svg>
