<svg width="38" height="38" viewBox="0 0 38 38" fill="none" xmlns="http://www.w3.org/2000/svg">
<g filter="url(#filter0_d_2200_1020)">
<path d="M19 0C10.7163 0 4 6.71625 4 15C4 23.2837 10.7163 30 19 30C27.2837 30 34 23.2837 34 15C34 6.71625 27.2837 0 19 0ZM27.75 6.25L21.5 17.5L10.25 23.75L16.5 12.5L27.75 6.25ZM19 13.75C18.6685 13.75 18.3505 13.8817 18.1161 14.1161C17.8817 14.3505 17.75 14.6685 17.75 15C17.75 15.3315 17.8817 15.6495 18.1161 15.8839C18.3505 16.1183 18.6685 16.25 19 16.25C19.3315 16.25 19.6495 16.1183 19.8839 15.8839C20.1183 15.6495 20.25 15.3315 20.25 15C20.25 14.6685 20.1183 14.3505 19.8839 14.1161C19.6495 13.8817 19.3315 13.75 19 13.75Z" fill="#9D6CFF"/>
</g>
<defs>
<filter id="filter0_d_2200_1020" x="0" y="0" width="38" height="38" filterUnits="userSpaceOnUse" color-interpolation-filters="sRGB">
<feFlood flood-opacity="0" result="BackgroundImageFix"/>
<feColorMatrix in="SourceAlpha" type="matrix" values="0 0 0 0 0 0 0 0 0 0 0 0 0 0 0 0 0 0 127 0" result="hardAlpha"/>
<feOffset dy="4"/>
<feGaussianBlur stdDeviation="2"/>
<feComposite in2="hardAlpha" operator="out"/>
<feColorMatrix type="matrix" values="0 0 0 0 0 0 0 0 0 0 0 0 0 0 0 0 0 0 0.25 0"/>
<feBlend mode="normal" in2="BackgroundImageFix" result="effect1_dropShadow_2200_1020"/>
<feBlend mode="normal" in="SourceGraphic" in2="effect1_dropShadow_2200_1020" result="shape"/>
</filter>
</defs>
</svg>
