<svg width="60" height="60" viewBox="0 0 60 60" fill="none" xmlns="http://www.w3.org/2000/svg">
<path d="M30 0C13.4325 0 0 13.4325 0 30C0 46.5675 13.4325 60 30 60C46.5675 60 60 46.5675 60 30C60 13.4325 46.5675 0 30 0ZM47.5 12.5L35 35L12.5 47.5L25 25L47.5 12.5ZM30 27.5C29.337 27.5 28.7011 27.7634 28.2322 28.2322C27.7634 28.7011 27.5 29.337 27.5 30C27.5 30.663 27.7634 31.2989 28.2322 31.7678C28.7011 32.2366 29.337 32.5 30 32.5C30.663 32.5 31.2989 32.2366 31.7678 31.7678C32.2366 31.2989 32.5 30.663 32.5 30C32.5 29.337 32.2366 28.7011 31.7678 28.2322C31.2989 27.7634 30.663 27.5 30 27.5Z" fill="#9D6CFF"/>
</svg>
