<svg width="41" height="40" viewBox="0 0 41 40" fill="none" xmlns="http://www.w3.org/2000/svg">
<g filter="url(#filter0_d_2200_1014)">
<path d="M10.75 0.496094C7.02175 0.496094 4 3.51784 4 7.24609C4 10.9743 7.02175 13.9961 10.75 13.9961C14.4783 13.9961 17.5 10.9743 17.5 7.24609C17.5 3.51784 14.4783 0.496094 10.75 0.496094ZM17.4414 1.24609C18.6189 2.55784 19.4219 4.21271 19.6694 6.04346C19.7219 6.43721 19.75 6.83809 19.75 7.24609H31.75C33.481 7.24609 35.0552 7.90286 36.25 8.97461V5.74609C36.25 3.26434 34.2318 1.24609 31.75 1.24609H17.4414ZM10.375 3.87109C10.996 3.87109 11.5 4.37434 11.5 4.99609V7.17139L12.6646 8.31982C13.1078 8.75557 13.112 9.46814 12.6763 9.91064C12.4558 10.1341 12.166 10.2461 11.875 10.2461C11.5892 10.2461 11.3044 10.1384 11.0854 9.92236L9.58545 8.44287C9.37095 8.23137 9.25 7.94235 9.25 7.6416V4.99609C9.25 4.37434 9.754 3.87109 10.375 3.87109ZM19.4541 9.49609C18.4514 13.3728 14.9365 16.2461 10.75 16.2461C8.443 16.2461 6.34375 15.3685 4.75 13.9375V26.7461C4.75 29.2316 6.7645 31.2461 9.25 31.2461H31.75C34.2355 31.2461 36.25 29.2316 36.25 26.7461V13.9961C36.25 11.5106 34.2355 9.49609 31.75 9.49609H19.4541ZM25.75 19.2461H29.5C30.3288 19.2461 31 19.9173 31 20.7461V24.4961C31 25.3248 30.3288 25.9961 29.5 25.9961H25.75C24.9212 25.9961 24.25 25.3248 24.25 24.4961V20.7461C24.25 19.9173 24.9212 19.2461 25.75 19.2461Z" fill="#9D6CFF"/>
</g>
<defs>
<filter id="filter0_d_2200_1014" x="0" y="0.496094" width="40.25" height="38.75" filterUnits="userSpaceOnUse" color-interpolation-filters="sRGB">
<feFlood flood-opacity="0" result="BackgroundImageFix"/>
<feColorMatrix in="SourceAlpha" type="matrix" values="0 0 0 0 0 0 0 0 0 0 0 0 0 0 0 0 0 0 127 0" result="hardAlpha"/>
<feOffset dy="4"/>
<feGaussianBlur stdDeviation="2"/>
<feComposite in2="hardAlpha" operator="out"/>
<feColorMatrix type="matrix" values="0 0 0 0 0 0 0 0 0 0 0 0 0 0 0 0 0 0 0.25 0"/>
<feBlend mode="normal" in2="BackgroundImageFix" result="effect1_dropShadow_2200_1014"/>
<feBlend mode="normal" in="SourceGraphic" in2="effect1_dropShadow_2200_1014" result="shape"/>
</filter>
</defs>
</svg>
