<svg width="60" height="58" viewBox="0 0 60 58" fill="none" xmlns="http://www.w3.org/2000/svg">
<path d="M12.5581 0C5.62186 0 0 5.62186 0 12.5581C0 19.4944 5.62186 25.1163 12.5581 25.1163C19.4944 25.1163 25.1163 19.4944 25.1163 12.5581C25.1163 5.62186 19.4944 0 12.5581 0ZM25.0073 1.39535C27.198 3.83581 28.692 6.91463 29.1524 10.3207C29.2501 11.0532 29.3023 11.7991 29.3023 12.5581H51.6279C54.8484 12.5581 57.7772 13.78 60 15.774V9.76744C60 5.15023 56.2451 1.39535 51.6279 1.39535H25.0073ZM11.8605 6.27907C13.0158 6.27907 13.9535 7.21535 13.9535 8.37209V12.4191L16.1201 14.5558C16.9447 15.3665 16.9526 16.6922 16.1419 17.5154C15.7317 17.9313 15.1926 18.1395 14.6512 18.1395C14.1195 18.1395 13.5897 17.9391 13.1822 17.5372L10.3915 14.7847C9.99246 14.3912 9.76744 13.8535 9.76744 13.294V8.37209C9.76744 7.21535 10.7051 6.27907 11.8605 6.27907ZM28.7518 16.7442C26.8862 23.9567 20.347 29.3023 12.5581 29.3023C8.26605 29.3023 4.36046 27.6696 1.39535 25.0073V48.8372C1.39535 53.4614 5.14326 57.2093 9.76744 57.2093H51.6279C56.2521 57.2093 60 53.4614 60 48.8372V25.1163C60 20.4921 56.2521 16.7442 51.6279 16.7442H28.7518ZM40.4651 34.8837H47.4419C48.9837 34.8837 50.2326 36.1326 50.2326 37.6744V44.6512C50.2326 46.193 48.9837 47.4419 47.4419 47.4419H40.4651C38.9233 47.4419 37.6744 46.193 37.6744 44.6512V37.6744C37.6744 36.1326 38.9233 34.8837 40.4651 34.8837Z" fill="#9D6CFF"/>
</svg>
