<svg width="60" height="64" viewBox="0 0 60 64" fill="none" xmlns="http://www.w3.org/2000/svg">
<path fill-rule="evenodd" clip-rule="evenodd" d="M28.6627 0.00316389C27.7789 0.0485757 26.9665 0.609984 26.6464 1.49325L24.5236 7.32942C24.0937 8.5071 24.7 9.81464 25.8777 10.2445C27.0554 10.6714 28.36 10.0622 28.7869 8.88455L30.9156 3.04246C31.3455 1.86478 30.7333 0.563152 29.5556 0.133251C29.2612 0.0265322 28.9573 -0.0119735 28.6627 0.00316389ZM13.7441 2.53986C13.4493 2.55036 13.1528 2.62027 12.869 2.75273C11.7337 3.28253 11.2394 4.63307 11.7692 5.76837L14.3946 11.3976C14.9244 12.5359 16.2808 13.0272 17.4161 12.4974C18.5514 11.9676 19.0399 10.6201 18.51 9.48176L15.8847 3.84664C15.4873 2.99516 14.6285 2.50835 13.7441 2.53986ZM37.8634 10.1499C37.5686 10.1607 37.2721 10.2304 36.9883 10.3628L31.3532 12.9882C30.2179 13.518 29.7294 14.8685 30.2593 16.0038C30.7891 17.1391 32.1396 17.6335 33.2749 17.1037L38.9041 14.4783C40.0394 13.9485 40.5337 12.5979 40.0039 11.4626C39.6066 10.6089 38.7478 10.1177 37.8634 10.1499ZM2.15458 12.3614C1.27075 12.4064 0.458393 12.9741 0.138238 13.8574C-0.291664 15.0351 0.314636 16.3397 1.49232 16.7666L7.3344 18.8894C8.51209 19.3193 9.81674 18.713 10.2436 17.5353C10.6735 16.3576 10.0613 15.053 8.88362 14.6261L3.04745 12.4974C2.75303 12.3899 2.44919 12.3464 2.15458 12.3614ZM21.4015 15.3002C20.7544 15.3282 20.1147 15.4814 19.5153 15.7614C18.3194 16.3185 17.3942 17.3288 16.9431 18.5701C16.489 19.8114 16.5486 21.1822 17.1087 22.3781C20.6992 30.083 27.6339 44.9482 27.6339 44.9482C27.6339 44.9482 23.7879 43.3582 20.3608 41.9443C18.9954 41.3812 17.4567 41.4042 16.1034 41.9975C14.7532 42.594 13.7057 43.7153 13.2001 45.1019L13.1942 45.1078C12.1921 47.8598 13.5942 50.9109 16.334 51.9433C21.0145 53.7083 27.3264 56.0824 27.3264 56.0824C32.3823 57.9231 33.7004 58.5432 35.6046 62.161C36.4099 63.4023 38.0093 63.8639 39.3535 63.2372C45.024 60.6578 57.8199 54.6869 57.8199 54.6869C60.2691 51.284 60.6849 46.82 58.9138 43.0205C57.6816 40.3805 56.2038 37.2002 54.7688 34.1273C53.2793 30.9333 50.5801 28.4672 47.2711 27.2623C43.959 26.0573 40.3093 26.2162 37.1184 27.7057C35.3533 28.5262 34.1145 29.1012 34.1145 29.1012C32.5917 29.4433 31.274 29.1964 30.614 27.7826C29.4424 25.2638 27.582 21.2741 26.1379 18.1739C25.5778 16.975 24.5645 16.0469 23.3233 15.5958C22.7026 15.3703 22.0486 15.2722 21.4015 15.3002ZM9.69962 23.2769C9.40482 23.2874 9.10832 23.3573 8.82449 23.4897L3.19528 26.121C2.05997 26.6509 1.56565 27.9984 2.09545 29.1367C2.62526 30.272 3.9758 30.7604 5.1111 30.2306L10.7462 27.6111C11.8815 27.0813 12.3759 25.7249 11.8461 24.5896C11.4487 23.7381 10.584 23.2454 9.69962 23.2769Z" fill="#9D6CFF"/>
</svg>
