<svg width="38" height="40" viewBox="0 0 38 40" fill="none" xmlns="http://www.w3.org/2000/svg">
<g filter="url(#filter0_d_2200_1026)">
<path fill-rule="evenodd" clip-rule="evenodd" d="M18.3314 0.0914257C17.8894 0.114132 17.4833 0.394836 17.3232 0.836468L16.2618 3.75455C16.0469 4.3434 16.35 4.99716 16.9388 5.21212C17.5277 5.42555 18.18 5.12096 18.3935 4.53212L19.4578 1.61108C19.6727 1.02223 19.3666 0.37142 18.7778 0.156469C18.6306 0.10311 18.4787 0.083857 18.3314 0.0914257ZM10.8721 1.35977C10.7247 1.36502 10.5764 1.39998 10.4345 1.46621C9.86685 1.73111 9.61969 2.40638 9.88459 2.97403L11.1973 5.78864C11.4622 6.3578 12.1404 6.60345 12.7081 6.33855C13.2757 6.07365 13.5199 5.39989 13.255 4.83072L11.9423 2.01316C11.7436 1.58742 11.3143 1.34402 10.8721 1.35977ZM22.9317 5.16481C22.7843 5.17018 22.6361 5.20502 22.4941 5.27125L19.6766 6.58394C19.1089 6.84884 18.8647 7.52411 19.1296 8.09176C19.3945 8.65942 20.0698 8.90658 20.6374 8.64168L23.4521 7.32898C24.0197 7.06408 24.2669 6.38881 24.002 5.82116C23.8033 5.39428 23.3739 5.1487 22.9317 5.16481ZM5.07729 6.27055C4.63538 6.29304 4.2292 6.57692 4.06912 7.01855C3.85417 7.60739 4.15732 8.25972 4.74616 8.47316L7.6672 9.53455C8.25605 9.7495 8.90837 9.44635 9.12181 8.8575C9.33676 8.26866 9.03065 7.61633 8.44181 7.4029L5.52373 6.33855C5.37652 6.28481 5.2246 6.26305 5.07729 6.27055ZM14.7008 7.73994C14.3772 7.75394 14.0573 7.83053 13.7576 7.97055C13.1597 8.24908 12.6971 8.75426 12.4715 9.37489C12.2445 9.99553 12.2743 10.681 12.5543 11.2789C14.3496 15.1314 17.8169 22.5639 17.8169 22.5639C17.8169 22.5639 15.894 21.7689 14.1804 21.062C13.4977 20.7805 12.7284 20.7919 12.0517 21.0886C11.3766 21.3868 10.8529 21.9475 10.6001 22.6408L10.5971 22.6437C10.0961 24.0197 10.7971 25.5453 12.167 26.0615C14.5073 26.944 17.6632 28.131 17.6632 28.131C20.1911 29.0514 20.8502 29.3614 21.8023 31.1703C22.205 31.791 23.0046 32.0218 23.6767 31.7084C26.512 30.4187 32.91 27.4333 32.91 27.4333C34.1346 25.7319 34.3424 23.4998 33.4569 21.6001C32.8408 20.2801 32.1019 18.6899 31.3844 17.1535C30.6396 15.5565 29.29 14.3234 27.6355 13.721C25.9795 13.1185 24.1547 13.198 22.5592 13.9427C21.6767 14.3529 21.0573 14.6405 21.0573 14.6405C20.2959 14.8115 19.637 14.6881 19.307 13.9811C18.7212 12.7217 17.791 10.7269 17.0689 9.17681C16.7889 8.57737 16.2823 8.11331 15.6616 7.88777C15.3513 7.77499 15.0243 7.72594 14.7008 7.73994ZM8.84981 11.7283C8.70241 11.7335 8.55416 11.7685 8.41224 11.8347L5.59764 13.1504C5.02999 13.4153 4.78282 14.089 5.04773 14.6582C5.31263 15.2258 5.9879 15.4701 6.55555 15.2051L9.37311 13.8954C9.94076 13.6305 10.1879 12.9523 9.92303 12.3846C9.72435 11.9589 9.29201 11.7125 8.84981 11.7283Z" fill="#9D6CFF"/>
</g>
<defs>
<filter id="filter0_d_2200_1026" x="0" y="0.0898438" width="38" height="39.7578" filterUnits="userSpaceOnUse" color-interpolation-filters="sRGB">
<feFlood flood-opacity="0" result="BackgroundImageFix"/>
<feColorMatrix in="SourceAlpha" type="matrix" values="0 0 0 0 0 0 0 0 0 0 0 0 0 0 0 0 0 0 127 0" result="hardAlpha"/>
<feOffset dy="4"/>
<feGaussianBlur stdDeviation="2"/>
<feComposite in2="hardAlpha" operator="out"/>
<feColorMatrix type="matrix" values="0 0 0 0 0 0 0 0 0 0 0 0 0 0 0 0 0 0 0.25 0"/>
<feBlend mode="normal" in2="BackgroundImageFix" result="effect1_dropShadow_2200_1026"/>
<feBlend mode="normal" in="SourceGraphic" in2="effect1_dropShadow_2200_1026" result="shape"/>
</filter>
</defs>
</svg>
