<svg width="60" height="62" viewBox="0 0 60 62" fill="none" xmlns="http://www.w3.org/2000/svg">
<path d="M28.8965 5L6.18578 0.810229L13.9127 22.5732L28.8965 5ZM25.7586 52.3103C18.6475 52.3103 13.2584 50.5014 9.66109 47.2003C6.09188 43.925 4 38.9169 4 31.8966H0C0 39.7307 2.36015 45.9295 6.95661 50.1475C11.5249 54.3396 18.0152 56.3103 25.7586 56.3103V52.3103ZM4 31.8966C4 24.1006 7.58093 17.1425 13.1953 12.5742L10.6708 9.47154C4.16293 14.7667 0 22.8463 0 31.8966H4Z" fill="#9D6CFF"/>
<path d="M30.6855 57L53.3963 61.1898L45.6693 39.4268L30.6855 57ZM34.72 9.68966C41.8303 9.68966 46.9668 11.4972 50.3282 14.761C53.6794 18.0148 55.582 23.0235 55.582 30.1034H59.582C59.582 22.3288 57.4809 16.1306 53.1147 11.8912C48.7587 7.66171 42.4642 5.68966 34.72 5.68966V9.68966ZM55.582 30.1034C55.582 37.8994 52.0011 44.8575 46.3867 49.4258L48.9113 52.5285C55.4191 47.2333 59.582 39.1537 59.582 30.1034H55.582Z" fill="#9D6CFF"/>
</svg>
