<svg width="60" height="60" viewBox="0 0 60 60" fill="none" xmlns="http://www.w3.org/2000/svg">
<path d="M59.9986 33.8554C59.9425 35.898 58.2153 37.5 56.172 37.5H49.6875V39.375C49.6875 41.9372 49.1153 44.3653 48.0937 46.5404L55.1517 53.5984C56.616 55.0628 56.616 57.4372 55.1517 58.9017C53.6871 60.3662 51.3127 60.3661 49.8482 58.9017L43.4339 52.4873C40.5335 54.8396 36.838 56.25 32.8124 56.25V27.6562C32.8124 26.8796 32.1828 26.25 31.4062 26.25H28.5937C27.8171 26.25 27.1874 26.8796 27.1874 27.6562V56.25C23.1619 56.25 19.4664 54.8396 16.566 52.4873L10.1517 58.9017C8.68704 60.3662 6.31271 60.3661 4.84821 58.9017C3.38384 57.4372 3.38384 55.0628 4.84821 53.5984L11.9062 46.5404C10.8845 44.3653 10.3124 41.9372 10.3124 39.375V37.5H3.82798C1.7847 37.5 0.0574683 35.898 0.00145265 33.8554C-0.0567896 31.7362 1.64384 30 3.74993 30H10.3124V23.1158L4.84821 17.6516C3.38384 16.1871 3.38384 13.8128 4.84821 12.3483C6.31282 10.8838 8.68704 10.8838 10.1517 12.3483L16.5533 18.75H43.4465L49.8481 12.3484C51.3127 10.8839 53.6869 10.8839 55.1516 12.3484C56.6159 13.8129 56.6159 16.1872 55.1516 17.6517L49.6875 23.1158V30H56.25C58.3561 30 60.0567 31.7362 59.9986 33.8554ZM30.1171 0C22.8684 0 16.9921 5.87625 16.9921 13.125H43.2421C43.2421 5.87625 37.3659 0 30.1171 0Z" fill="#9D6CFF"/>
</svg>
