<svg width="53" height="60" viewBox="0 0 53 60" fill="none" xmlns="http://www.w3.org/2000/svg">
<path d="M52.5 8.57145V13.9286C52.5 18.6496 40.7422 22.5 26.25 22.5C11.7578 22.5 0 18.6496 0 13.9286V8.57145C0 3.85043 11.7578 0 26.25 0C40.7422 0 52.5 3.85043 52.5 8.57145ZM52.5 20.625V32.6786C52.5 37.3996 40.7422 41.25 26.25 41.25C11.7578 41.25 0 37.3996 0 32.6786V20.625C5.63965 24.5089 15.9619 26.317 26.25 26.317C36.5381 26.317 46.8602 24.5089 52.5 20.625ZM52.5 39.375V51.4286C52.5 56.1496 40.7422 60 26.25 60C11.7578 60 0 56.1496 0 51.4286V39.375C5.63965 43.2589 15.9619 45.067 26.25 45.067C36.5381 45.067 46.8602 43.2589 52.5 39.375Z" fill="#9D6CFF"/>
</svg>
