<svg width="60" height="60" viewBox="0 0 60 60" fill="none" xmlns="http://www.w3.org/2000/svg">
<path d="M30 0C13.4326 0 0 13.4375 0 30C0 46.5722 13.4326 60 30 60C46.5674 60 60 46.5722 60 30C60 13.4375 46.5674 0 30 0ZM30 13.3065C32.806 13.3065 35.0806 15.5811 35.0806 18.3871C35.0806 21.1931 32.806 23.4677 30 23.4677C27.194 23.4677 24.9194 21.1931 24.9194 18.3871C24.9194 15.5811 27.194 13.3065 30 13.3065ZM36.7742 44.0323C36.7742 44.8339 36.1242 45.4839 35.3226 45.4839H24.6774C23.8758 45.4839 23.2258 44.8339 23.2258 44.0323V41.129C23.2258 40.3274 23.8758 39.6774 24.6774 39.6774H26.129V31.9355H24.6774C23.8758 31.9355 23.2258 31.2855 23.2258 30.4839V27.5806C23.2258 26.779 23.8758 26.129 24.6774 26.129H32.4194C33.221 26.129 33.871 26.779 33.871 27.5806V39.6774H35.3226C36.1242 39.6774 36.7742 40.3274 36.7742 41.129V44.0323Z" fill="#9D6CFF"/>
</svg>
