<svg width="29" height="20" viewBox="0 0 29 20" fill="none" xmlns="http://www.w3.org/2000/svg">
<path d="M7.27344 8.27344C7.27344 7.72115 7.72115 7.27344 8.27344 7.27344H20.2128C20.7651 7.27344 21.2128 7.72115 21.2128 8.27344V19.0007C21.2128 19.553 20.7651 20.0007 20.2128 20.0007H8.27344C7.72115 20.0007 7.27344 19.553 7.27344 19.0007V8.27344Z" fill="white"/>
<path d="M13.5958 0.548044C13.9689 0.231834 14.5159 0.231834 14.889 0.548045L24.4969 8.6917C25.2072 9.29377 24.7815 10.4545 23.8503 10.4545H4.63452C3.70337 10.4545 3.27761 9.29377 3.98793 8.6917L13.5958 0.548044Z" fill="white"/>
<path d="M14.5469 14.332C14.5469 13.7797 14.9946 13.332 15.5469 13.332H17.1832C17.7355 13.332 18.1832 13.7797 18.1832 14.332V19.9987H14.5469V14.332Z" fill="#2D2D2D"/>
</svg>
