<svg width="31" height="27" viewBox="0 0 31 27" fill="none" xmlns="http://www.w3.org/2000/svg">
<path d="M8.51025 27H3.5542V6.86816C3.5542 5.4668 3.82764 4.2876 4.37451 3.33057C4.93278 2.36214 5.71322 1.63298 6.71582 1.14307C7.72982 0.641764 8.9318 0.391113 10.3218 0.391113C10.7775 0.391113 11.2161 0.425293 11.6377 0.493652C12.0592 0.550618 12.4694 0.624674 12.8682 0.71582L12.8169 4.42432C12.6004 4.36735 12.3726 4.32747 12.1333 4.30469C11.894 4.2819 11.6149 4.27051 11.2959 4.27051C10.7035 4.27051 10.1965 4.37305 9.7749 4.57812C9.36475 4.77181 9.05143 5.06234 8.83496 5.44971C8.61849 5.83708 8.51025 6.3099 8.51025 6.86816V27ZM12.2017 8.50879V11.9951H0.802734V8.50879H12.2017ZM18.7471 8.50879L21.8062 14.1313L24.9507 8.50879H30.1973L24.9678 17.5493L30.4365 27H25.1729L21.8403 21.0527L18.5078 27H13.2441L18.7129 17.5493L13.4834 8.50879H18.7471Z" fill="#9D6CFF"/>
</svg>
