<svg width="40" height="40" viewBox="0 0 40 40" fill="none" xmlns="http://www.w3.org/2000/svg">
<path d="M20 0C8.78606 0 0 3.71695 0 8.46154V31.5385C0 36.2831 8.78606 40 20 40C31.2139 40 40 36.2831 40 31.5385V8.46154C40 3.71695 31.2139 0 20 0ZM20 1.53846C31.0427 1.53846 38.4615 5.11719 38.4615 8.46154C38.4615 11.8059 31.0427 15.3846 20 15.3846C8.95733 15.3846 1.53846 11.8059 1.53846 8.46154C1.53846 5.11719 8.95733 1.53846 20 1.53846ZM20 3.07692C16.5986 3.07692 13.3924 3.43149 10.7212 4.10156C10.3095 4.20373 10.0601 4.6244 10.1653 5.03606C10.2524 5.38462 10.5649 5.61599 10.9105 5.61599C10.9706 5.61599 11.0337 5.60998 11.0968 5.59195C13.6088 4.96394 16.7698 4.61538 20 4.61538C21.0216 4.61538 22.0403 4.64844 23.0288 4.71454C23.4495 4.75661 23.8191 4.42608 23.8462 4.0024C23.8762 3.57572 23.5547 3.20913 23.131 3.18209C22.1094 3.11298 21.0547 3.07692 20 3.07692ZM26.7458 3.58774C26.3251 3.51863 25.9315 3.80409 25.8654 4.22476C25.7963 4.64543 26.0817 5.03906 26.5024 5.10817C27.3498 5.24339 28.155 5.40565 28.9032 5.59195C28.9663 5.60998 29.0294 5.61599 29.0895 5.61599C29.4351 5.61599 29.7476 5.38462 29.8347 5.03606C29.9399 4.6244 29.6905 4.20373 29.2788 4.10156C28.4886 3.90325 27.6382 3.72897 26.7458 3.58774ZM1.53846 11.7758C4.52825 14.8287 11.5805 16.9231 20 16.9231C28.4195 16.9231 35.4718 14.8287 38.4615 11.7758V16.1538C38.4615 19.4982 31.0427 23.0769 20 23.0769C8.95733 23.0769 1.53846 19.4982 1.53846 16.1538V11.7758ZM1.53846 19.4681C4.52825 22.521 11.5805 24.6154 20 24.6154C28.4195 24.6154 35.4718 22.521 38.4615 19.4681V23.8462C38.4615 25.1773 37.2837 26.5535 35.1412 27.7194C34.7686 27.9237 34.6304 28.3894 34.8317 28.762C34.973 29.0204 35.2374 29.1647 35.5078 29.1647C35.634 29.1647 35.7602 29.1346 35.8774 29.0715C36.9441 28.4916 37.8035 27.8546 38.4615 27.1785V31.5385C38.4615 34.8828 31.0457 38.4615 20 38.4615C8.95733 38.4615 1.53846 34.8828 1.53846 31.5385V27.1424C4.01142 29.6845 9.29087 31.5925 16.0427 32.1484C16.0637 32.1484 16.0877 32.1514 16.1058 32.1514C16.5054 32.1514 16.8389 31.845 16.875 31.4423C16.9081 31.0216 16.5925 30.649 16.1689 30.613C7.82752 29.9279 1.53846 27.0192 1.53846 23.8462V19.4681ZM31.5385 27.6923C31.1118 27.6923 30.7692 28.0379 30.7692 28.4615V30C30.7692 30.4237 31.1118 30.7692 31.5385 30.7692C31.9651 30.7692 32.3077 30.4237 32.3077 30V28.4615C32.3077 28.0379 31.9651 27.6923 31.5385 27.6923ZM27.6923 28.5367C27.2656 28.5367 26.9231 28.8822 26.9231 29.3059V30.8444C26.9231 31.271 27.2656 31.6136 27.6923 31.6136C28.119 31.6136 28.4615 31.271 28.4615 30.8444V29.3059C28.4615 28.8822 28.119 28.5367 27.6923 28.5367ZM23.8462 29.0775C23.4195 29.0775 23.0769 29.4231 23.0769 29.8468V31.3852C23.0769 31.8089 23.4195 32.1544 23.8462 32.1544C24.2728 32.1544 24.6154 31.8089 24.6154 31.3852V29.8468C24.6154 29.4231 24.2728 29.0775 23.8462 29.0775ZM20 29.2308C19.5733 29.2308 19.2308 29.5763 19.2308 30V31.5385C19.2308 31.9621 19.5733 32.3077 20 32.3077C20.4267 32.3077 20.7692 31.9621 20.7692 31.5385V30C20.7692 29.5763 20.4267 29.2308 20 29.2308Z" fill="#9D6CFF"/>
</svg>
