<svg width="27" height="27" viewBox="0 0 27 27" fill="none" xmlns="http://www.w3.org/2000/svg">
<path d="M7.8529 1.61758V25.7012M1.46106 7.99193H25.5646M19.6858 13.51V18.9064C19.6858 19.1826 19.4619 19.4064 19.1858 19.4064H13.9886M17.8111 15.2829L19.3917 13.686C19.5859 13.4898 19.9024 13.4881 20.0987 13.6824L21.6358 15.2032M14.4827 21.3187L12.8841 19.72C12.6888 19.5248 12.6888 19.2082 12.8841 19.0129L14.403 17.494M1.5 26H25.5C25.7761 26 26 25.7761 26 25.5V1.5C26 1.22386 25.7761 1 25.5 1H1.5C1.22386 1 1 1.22386 1 1.5V25.5C1 25.7761 1.22386 26 1.5 26Z" stroke="#9D6CFF" stroke-width="2" stroke-miterlimit="10" stroke-linecap="round"/>
</svg>
