<svg width="30" height="30" viewBox="0 0 30 30" fill="none" xmlns="http://www.w3.org/2000/svg">
<path fill-rule="evenodd" clip-rule="evenodd" d="M7.20698 28.2712C8.56033 29.0615 10.0451 29.6514 11.6205 30L12.5994 28.9158C14.0196 27.3427 16.332 27.3386 17.756 28.9158L18.6598 29.917C20.2656 29.5213 21.7723 28.8738 23.1354 28.0187L23.0689 26.7151C22.9608 24.5986 24.593 22.9605 26.7151 23.0689L28.0187 23.1355C28.8738 21.7723 29.5213 20.2656 29.917 18.6598L28.9158 17.756C27.3427 16.3358 27.3386 14.0233 28.9158 12.5994L30 11.6205C29.6514 10.0451 29.0615 8.56033 28.2712 7.20698L26.7151 7.28646C24.5986 7.39457 22.9605 5.76237 23.0689 3.64021L23.1567 1.92011C21.8773 1.11462 20.4711 0.492185 18.9747 0.0895398L17.756 1.43953C16.3358 3.0126 14.0233 3.01677 12.5994 1.43953L11.2998 0C9.83514 0.357307 8.4526 0.924052 7.18566 1.6667L7.28646 3.64021C7.39457 5.75676 5.76237 7.39485 3.64021 7.28646L1.6667 7.18566C0.924052 8.4526 0.357307 9.83514 0 11.2998L1.43953 12.5994C3.0126 14.0196 3.01677 16.332 1.43953 17.756L0.0895398 18.9747C0.492185 20.4711 1.11462 21.8773 1.9201 23.1567L3.64021 23.0689C5.75676 22.9608 7.39485 24.593 7.28646 26.7151L7.20698 28.2712ZM15 25C20.5228 25 25 20.5228 25 15C25 9.47715 20.5228 5 15 5C9.47715 5 5 9.47715 5 15C5 20.5228 9.47715 25 15 25Z" fill="#9D6CFF"/>
</svg>
