<svg width="30" height="30" viewBox="0 0 30 30" fill="none" xmlns="http://www.w3.org/2000/svg">
<path fill-rule="evenodd" clip-rule="evenodd" d="M11.6205 30C10.0451 29.6514 8.56033 29.0615 7.20698 28.2712L7.28646 26.7151C7.39485 24.593 5.75676 22.9608 3.64021 23.0689L1.9201 23.1567C1.11462 21.8773 0.492185 20.4711 0.0895398 18.9747L1.43953 17.756C3.01677 16.332 3.0126 14.0196 1.43953 12.5994L0 11.2998C0.357307 9.83514 0.924052 8.4526 1.6667 7.18566L3.64021 7.28646C5.76237 7.39485 7.39457 5.75676 7.28646 3.64021L7.18566 1.6667C8.4526 0.924052 9.83514 0.357307 11.2998 0L12.5994 1.43953C14.0233 3.01677 16.3358 3.0126 17.756 1.43953L18.9747 0.0895398C20.4711 0.492185 21.8773 1.11462 23.1567 1.92011L23.0689 3.64021C22.9605 5.76237 24.5986 7.39457 26.7151 7.28646L28.2712 7.20698C29.0615 8.56033 29.6514 10.0451 30 11.6205L28.9158 12.5994C27.3386 14.0233 27.3427 16.3358 28.9158 17.756L29.917 18.6598C29.5213 20.2656 28.8738 21.7723 28.0187 23.1355L26.7151 23.0689C24.593 22.9605 22.9608 24.5986 23.0689 26.7151L23.1354 28.0187C21.7723 28.8738 20.2656 29.5213 18.6598 29.917L17.756 28.9158C16.332 27.3386 14.0196 27.3427 12.5994 28.9158L11.6205 30ZM14.9627 21.3798C18.5067 21.3798 21.3798 18.5067 21.3798 14.9627C21.3798 11.4186 18.5067 8.54563 14.9627 8.54563C11.4186 8.54563 8.54563 11.4186 8.54563 14.9627C8.54563 18.5067 11.4186 21.3798 14.9627 21.3798Z" fill="#9D6CFF"/>
</svg>
