<svg width="40" height="40" viewBox="0 0 40 40" fill="none" xmlns="http://www.w3.org/2000/svg">
<path fill-rule="evenodd" clip-rule="evenodd" d="M40 3.2C40 1.4352 38.5648 0 36.8 0H3.2C1.4352 0 0 1.4352 0 3.2V36.8C0 38.5648 1.4352 40 3.2 40H36.8C38.5648 40 40 38.5648 40 36.8V3.2ZM19.2 11.2V19.2H11.2V11.2H19.2ZM28.8 11.2V19.2H20.8V11.2H28.8ZM38.4 11.2V19.2H30.4V11.2H38.4ZM9.6 19.2H1.6V11.2H9.6V19.2ZM1.6 20.8H9.6V28.8H1.6V20.8ZM11.2 20.8H19.2V28.8H11.2V20.8ZM19.2 30.4V38.4H11.2V30.4H19.2ZM20.8 30.4H28.8V38.4H20.8V30.4ZM20.8 28.8V20.8H28.8V28.8H20.8ZM30.4 20.8H38.4V28.8H30.4V20.8ZM3.2 1.6H36.8C37.6824 1.6 38.4 2.3176 38.4 3.2V9.6H1.6V3.2C1.6 2.3176 2.3176 1.6 3.2 1.6ZM1.6 36.8V30.4H9.6V38.4H3.2C2.3176 38.4 1.6 37.6824 1.6 36.8ZM36.8 38.4H30.4V30.4H38.4V36.8C38.4 37.6824 37.6824 38.4 36.8 38.4Z" fill="#9D6CFF"/>
</svg>
