<?xml version="1.0" encoding="utf-8"?>
<svg fill="#ffffff" width="16" height="16" viewBox="0 0 24 24" xmlns="http://www.w3.org/2000/svg">
  <path d="M12 2C13.1 2 14 2.9 14 4V14.17L15.41 12.76C15.8 12.37 16.43 12.37 16.82 12.76C17.21 13.15 17.21 13.78 16.82 14.17L12.7 18.29C12.31 18.68 11.69 18.68 11.3 18.29L7.18 14.17C6.79 13.78 6.79 13.15 7.18 12.76C7.57 12.37 8.2 12.37 8.59 12.76L10 14.17V4C10 2.9 10.9 2 12 2ZM4 20C4 19.45 4.45 19 5 19H19C19.55 19 20 19.45 20 20C20 20.55 19.55 21 19 21H5C4.45 21 4 20.55 4 20Z"/>
</svg>
