<svg viewBox="0 0 73 88" fill="none" xmlns="http://www.w3.org/2000/svg">
<path fill-rule="evenodd" clip-rule="evenodd" d="M66.3669 15.2168L51.1501 44.1835L66.3669 73.1503L72.6002 69.6669V18.7001L66.3669 15.2168Z" fill="#E25444"/>
<path fill-rule="evenodd" clip-rule="evenodd" d="M66.3668 15.2168L35.9334 18.7001L20.4417 44.1835L35.9334 69.6669L66.3668 73.1503V15.2168Z" fill="#7B1D13"/>
<path fill-rule="evenodd" clip-rule="evenodd" d="M4.95001 15.2168L0 17.4168V70.9503L4.95001 73.1503L35.9334 44.1835L4.95001 15.2168Z" fill="#58150D"/>
<path fill-rule="evenodd" clip-rule="evenodd" d="M4.88354 15.1553L35.9746 23.7923V65.3479L4.88354 73.1702V15.1553Z" fill="#E25444"/>
<path fill-rule="evenodd" clip-rule="evenodd" d="M35.9908 28.3554L22.7893 26.2368L35.9908 11.2441L49.1597 26.2368L35.9908 28.3554Z" fill="#58150D"/>
<path fill-rule="evenodd" clip-rule="evenodd" d="M49.1597 26.2368L35.9745 28.3879L22.7893 26.2368V11.2441" fill="#58150D"/>
<path fill-rule="evenodd" clip-rule="evenodd" d="M35.9908 59.8076L22.7893 62.2522L35.9908 75.1263L49.1597 62.2522L35.9908 59.8076Z" fill="#58150D"/>
<path fill-rule="evenodd" clip-rule="evenodd" d="M35.9334 0L22.7334 6.96668V26.2167L35.9745 22.489L35.9334 0Z" fill="#7B1D13"/>
<path fill-rule="evenodd" clip-rule="evenodd" d="M35.9745 33.0811L22.7893 34.5153V53.7356L35.9745 55.2441V33.0811Z" fill="#7B1D13"/>
<path fill-rule="evenodd" clip-rule="evenodd" d="M35.9745 65.5111L22.7893 62.2051V81.1L35.9745 88.0001V65.5111Z" fill="#7B1D13"/>
<path fill-rule="evenodd" clip-rule="evenodd" d="M49.1596 62.2051L35.9744 65.5121V88.0001L49.1596 81.1V62.2051Z" fill="#E25444"/>
<path fill-rule="evenodd" clip-rule="evenodd" d="M35.9744 33.0811L49.1596 34.5153V53.7356L35.9744 55.2441V33.0811Z" fill="#E25444"/>
<path fill-rule="evenodd" clip-rule="evenodd" d="M35.9333 0L49.1334 6.96668V26.2167L35.9333 22.5501V0Z" fill="#E25444"/>
</svg>
