<svg viewBox="0 0 261 210" fill="none" xmlns="http://www.w3.org/2000/svg"><g clip-path="url(#a)"><path d="M0 55.567h260.806v145.407a8.715 8.715 0 0 1-8.714 8.714H8.714A8.715 8.715 0 0 1 0 200.974V55.567Z" fill="url(#b)"/><path d="M8.76 0h243.286a8.72 8.72 0 0 1 8.051 5.38 8.712 8.712 0 0 1 .663 3.334v46.853H0V8.714A8.714 8.714 0 0 1 8.76 0ZM120.063 74.913H32.386a4.342 4.342 0 0 0-4.342 4.341v43.601a4.342 4.342 0 0 0 4.342 4.342h87.677a4.341 4.341 0 0 0 4.341-4.342v-43.6a4.341 4.341 0 0 0-4.341-4.342Z" fill="#0078D4"/><path d="M227.576 74.913h-87.677a4.342 4.342 0 0 0-4.341 4.341v43.601a4.342 4.342 0 0 0 4.341 4.342h87.677a4.342 4.342 0 0 0 4.342-4.342v-43.6a4.342 4.342 0 0 0-4.342-4.342Z" fill="#fff"/><path d="M119.572 137.491H31.895a4.342 4.342 0 0 0-4.342 4.342v43.6a4.342 4.342 0 0 0 4.342 4.342h87.677a4.342 4.342 0 0 0 4.342-4.342v-43.6a4.342 4.342 0 0 0-4.342-4.342ZM227.085 137.491h-87.677a4.342 4.342 0 0 0-4.341 4.342v43.6a4.342 4.342 0 0 0 4.341 4.342h87.677a4.342 4.342 0 0 0 4.342-4.342v-43.6a4.342 4.342 0 0 0-4.342-4.342Z" fill="#0078D4"/></g><defs><linearGradient id="b" x1="130.403" y1="209.688" x2="130.403" y2="55.567" gradientUnits="userSpaceOnUse"><stop stop-color="#32BEDD"/><stop offset=".775" stop-color="#32D4F5"/></linearGradient><clipPath id="a"><path fill="#fff" d="M0 0h260.806v209.688H0z"/></clipPath></defs></svg>
