<svg viewBox="0 0 95 84" fill="none" xmlns="http://www.w3.org/2000/svg"><g clip-path="url(#a)"><path d="M21.4415 80.7899.8263 45.0826a6.1646 6.1646 0 0 1 0-6.1659L21.4415 3.2109a6.165 6.165 0 0 1 5.3308-3.083h41.2498a6.164 6.164 0 0 1 5.3086 3.083L93.943 38.9167a6.1646 6.1646 0 0 1 0 6.1659L73.3277 80.7899a6.1648 6.1648 0 0 1-5.3308 3.0829H26.7575c-2.196-.0074-4.2202-1.1816-5.3204-3.0829h.0044Z" fill="#4386FA"/><path opacity=".1" d="M60.2628 30.502s5.7306 13.7459-2.0819 21.5377c-7.8126 7.7918-22.0383 2.8046-22.0383 2.8046l28.9372 29.0172h2.9378a6.1646 6.1646 0 0 0 5.3308-3.083l13.6468-23.6301L60.2628 30.502Z" fill="#000"/><path d="m67.0302 58.629-6.3185-6.3332a.9932.9932 0 0 0-.2339-.1777 17.2217 17.2217 0 0 0-2.2197-23.4833 17.2213 17.2213 0 1 0-.7892 26.4996.9908.9908 0 0 0 .1673.2221l6.3332 6.3333a.9924.9924 0 0 0 1.4023 0l1.6585-1.6585a.9921.9921 0 0 0 0-1.4023Zm-20.1785-4.0958a12.9567 12.9567 0 1 1-.0029-25.9134 12.9567 12.9567 0 0 1 .0029 25.9134Zm-8.2819-13.6468v5.3545a9.515 9.515 0 0 0 3.462 3.5168v-8.9038l-3.462.0325Zm6.4784-4.4393v14.4701a9.5508 9.5508 0 0 0 3.462 0V36.4471h-3.462Zm10.0159 9.782v-3.1718H51.605v6.6634a9.5215 9.5215 0 0 0 3.462-3.5064l-.0029.0148Z" fill="#fff"/></g><defs><clipPath id="a"><path fill="#fff" d="M0 0h94.7692v84H0z"/></clipPath></defs></svg>
