<svg width="28" height="28" viewBox="0 0 28 28" fill="none" xmlns="http://www.w3.org/2000/svg">
    <path fill-rule="evenodd" clip-rule="evenodd" d="M6 12.6664V16.1137L14.5 20.5804V17.1331L6 12.6664ZM6 17.992V21.4394L14.5 25.9061V22.4587L6 17.992Z" fill="#AECBFA"/>
    <path fill-rule="evenodd" clip-rule="evenodd" d="M14.5 20.5804L23 16.1137V12.6664L14.5 17.1331V20.5804ZM14.5 25.9061L23 21.4394V17.992L14.5 22.4587V25.9061Z" fill="#669DF6"/>
    <path fill-rule="evenodd" clip-rule="evenodd" d="M23 10.914V7.46668L14.5 3V6.44736L23 10.914Z" fill="#4285F4"/>
    <path fill-rule="evenodd" clip-rule="evenodd" d="M14.5 3L6 7.46668V10.914L14.5 6.44736V3Z" fill="#669DF6"/>
    <path fill-rule="evenodd" clip-rule="evenodd" d="M6 7.43234V10.8912L14.5 15.3578V11.899L6 7.43234Z" fill="#AECBFA"/>
    <path fill-rule="evenodd" clip-rule="evenodd" d="M14.5 15.3578L23 10.8912V7.43234L14.5 11.899V15.3578Z" fill="#669DF6"/>
</svg>
