<svg xmlns="http://www.w3.org/2000/svg" viewBox="-90 -90 430 430" fill="none"><path fill="#FF3621" d="m217.831 102.941-103.073 58.43L5.252 99.133l-5.12 2.758v45.168l114.758 65.388 103.072-58.429v24.028l-103.072 58.43L5.252 174.238l-5.12 2.758v7.615L114.89 250l115.152-65.389v-45.168l-5.121-2.757-110.163 62.237L12.08 140.494v-23.635l102.678 58.036 115.153-65.389V64.995l-5.909-3.152-109.244 61.844-97.163-55.278 97.163-54.885 80.226 45.168 7.222-3.807V49.37L114.758 0 0 65.126v6.96l114.758 65.388 103.073-58.43v23.897Z"/></svg>
