<svg viewBox="-15 -15 81 81" fill="none" xmlns="http://www.w3.org/2000/svg">
<path fill-rule="evenodd" clip-rule="evenodd" d="M63.8 1.30009C63.3 0.700096 62 0.700092 60.3 1.50009L39.5 12.1001L39.4 12.0001C39 11.6001 38.7 11.3001 38.3 10.9001C37.7 10.4001 36.6 9.70008 35.9 9.40009C31.4 7.10009 26.1 7.30009 21.4 8.70009C16.1 10.3001 11.1 13.5001 7.30003 17.5001C5.60003 19.3001 4.10003 21.4001 2.90003 23.6001C1.40003 26.4001 0.500026 29.4001 0.200026 32.5001C-0.299974 38.6001 1.40003 46.5001 5.60003 51.1001C6.60003 52.3001 7.70003 53.3001 8.80003 54.4001C9.60003 55.2001 10.5 56.0001 11.3 56.9001C12.8 58.7001 13.6 60.5001 14.3 62.8001L14.4 63.1001L14.7 62.9001C19 59.8001 20.6 55.7001 17.5 51.1001C19.3 49.6001 20.2 47.5001 20.2 45.2001C20.2 43.0001 19.3 40.6001 17.4 39.3001C18.2 39.0001 19.4 38.4001 20.2 38.1001C20.2 38.8001 19.6 39.9001 20.1 40.2001C21.1 40.8001 24.9 39.2001 26.2 35.8001C27.4 35.4001 28.1 35.1001 29.4 34.6001C34.3 32.6001 39.7 29.8001 42.7 26.3001C43.7 25.1001 45.8 21.6001 43.5 20.7001C44.3 19.8001 44.8 18.3001 44.5 17.3001L62.3 4.30009C63.6 3.5001 64.4 2.0001 63.8 1.30009ZM9.10003 45.6001C8.70003 43.4001 12.5 41.5001 14.5 40.6001C14 42.2001 13 43.8001 11.8 45.0001C11.2 45.5001 9.70003 46.9001 9.10003 45.6001Z" fill="#393C42"/>
<path fill-rule="evenodd" clip-rule="evenodd" d="M42.5 23.7001C43.8 22.0001 42.9 21.0001 42 22.0001C40.2 23.9001 37.4 24.5001 34.9 24.1001C31.2 23.5001 31.1 22.9001 31.7 22.4001C36 24.0001 41 21.9001 43.1 18.5001C44 17.2001 41 16.2001 39.2 13.8001C30.7 2.30009 3.90001 12.3001 1.40001 32.5001C0.600008 38.6001 2.30001 45.3001 6.50001 50.0001C9.60001 53.5001 13 55.0001 14.9 60.6001C18.6 57.4001 18.1 53.8001 15.3 50.6001C20 48.2001 19.3 41.9001 16 39.9001C14.5 45.5001 9.00001 49.7001 7.70001 45.7001C6.90001 41.6001 13.6 38.9001 24.3 34.9001C33.3 31.4001 39.1 28.6001 42.5 23.7001Z" fill="#55BFCE"/>
<path fill-rule="evenodd" clip-rule="evenodd" d="M42.5001 23.7001C43.8001 22.0001 42.9001 21.0002 42.0001 22.0002C40.4001 23.6002 38.1001 24.3001 35.9001 24.2001C32.2001 23.9002 29.3001 23.2002 26.6001 23.5002C21.3001 24.0002 16.1001 27.4002 13.3001 30.2001C8.60014 35.0001 3.50014 45.0001 8.70014 46.9001C8.30014 46.7001 8.00014 46.2002 7.80014 45.6002C7.00014 41.5002 13.7001 38.8002 24.4001 34.8002C33.3001 31.4002 39.1001 28.6001 42.5001 23.7001Z" fill="white"/>
<path fill-rule="evenodd" clip-rule="evenodd" d="M19.5 31.5C22.3 32.8 21.7 37.6 21.3 38.8C26.5 37.3 25 29.6 27.4 27.2C24.4 27.1 18.7 30.1 19.5 31.5Z" fill="#55BFCE"/>
<path fill-rule="evenodd" clip-rule="evenodd" d="M28.4003 17.5C29.1003 17.1 30.1003 17.4 30.5003 18.1C30.9003 18.8 30.6003 19.7 29.9003 20.2C29.2003 20.6 28.2003 20.3 27.8003 19.6C27.4003 18.8 27.7003 17.9 28.4003 17.5Z" fill="#393C42"/>
<path fill-rule="evenodd" clip-rule="evenodd" d="M41.1002 18.1001L62.1002 3.50014C62.7002 3.10014 63.5002 2.20014 63.1002 1.70014C62.8002 1.30014 61.9002 1.50014 61.1002 1.90014L38.4002 14.2001C37.7002 15.7001 39.2002 18.9001 41.1002 18.1001Z" fill="#55BFCE"/>
<path fill-rule="evenodd" clip-rule="evenodd" d="M39.2998 15.2001L61.1998 2.30009C62.1998 1.70009 62.4998 1.70009 63.0998 1.70009C62.7998 1.30009 61.8998 1.60009 61.0998 1.90009L38.3998 14.2001C37.7998 15.4001 38.5998 17.5001 39.7998 18.1001C39.3998 17.1001 39.0998 16.1001 39.2998 15.2001Z" fill="white"/>
<path fill-rule="evenodd" clip-rule="evenodd" d="M6.89991 21C7.59991 20.9 8.19991 21.4001 8.19991 22.1001C8.19991 22.8001 7.59991 23.5001 6.89991 23.6001C6.19991 23.7001 5.59991 23.2 5.69991 22.5C5.59991 21.8 6.19991 21.1 6.89991 21Z" fill="#25ABAD"/>
<path fill-rule="evenodd" clip-rule="evenodd" d="M11.2 16.3001C11.8 16.2001 12.3 16.6001 12.3 17.3001C12.3 18.0001 11.8 18.6001 11.1 18.7001C10.5 18.8001 10 18.4001 10 17.7001C10 17.0001 10.6 16.4001 11.2 16.3001Z" fill="#25ABAD"/>
<path fill-rule="evenodd" clip-rule="evenodd" d="M24.0999 10.1002C24.6999 10.1002 25.0999 10.7002 24.9999 11.3002C24.7999 11.9002 24.1999 12.4001 23.5999 12.4001C22.9999 12.4001 22.5999 11.8001 22.6999 11.2001C22.7999 10.5001 23.3999 10.0002 24.0999 10.1002Z" fill="#25ABAD"/>
<path fill-rule="evenodd" clip-rule="evenodd" d="M27.9999 9.40007C28.4999 9.50007 28.7999 10.0001 28.5999 10.5001C28.3999 11.0001 27.7999 11.3001 27.2999 11.2001C26.7999 11.1001 26.4999 10.6001 26.6999 10.1001C26.8999 9.60009 27.4999 9.30007 27.9999 9.40007Z" fill="#25ABAD"/>
<path fill-rule="evenodd" clip-rule="evenodd" d="M11.1998 19.2C11.6998 19.1 11.9998 19.5 11.9998 19.9C11.9998 20.4 11.5998 20.8 11.0998 20.9C10.5998 21 10.2998 20.7 10.2998 20.2C10.3998 19.8 10.7998 19.3 11.1998 19.2Z" fill="#25ABAD"/>
<path fill-rule="evenodd" clip-rule="evenodd" d="M4.6002 24.7002C5.1002 24.6002 5.5002 25.0002 5.5002 25.5002C5.5002 26.0002 5.1002 26.5002 4.6002 26.6002C4.1002 26.7002 3.7002 26.3002 3.7002 25.9002C3.7002 25.3002 4.1002 24.8002 4.6002 24.7002Z" fill="#25ABAD"/>
<path fill-rule="evenodd" clip-rule="evenodd" d="M43.8998 12.5002C43.7998 12.0002 43.7998 11.6002 43.7998 11.2002L42.7998 11.7002C42.7998 12.1002 42.8998 12.5002 43.0998 12.9002C43.4998 14.0002 44.2998 15.0002 44.8998 15.2002C44.4998 14.5002 44.0998 13.5002 43.8998 12.5002ZM49.0998 9.40019C49.0998 9.00019 48.9998 8.70019 49.0998 8.40019L48.2998 8.90019C48.2998 9.20019 48.3998 9.5002 48.4998 9.8002C48.8998 10.8002 49.5998 11.7002 49.9998 11.7002C49.5998 11.3002 49.2998 10.3002 49.0998 9.40019ZM54.2998 6.40019C54.2998 6.10019 54.1998 5.9002 54.2998 5.6002L53.5998 6.0002C53.5998 6.2002 53.5998 6.5002 53.6998 6.7002C53.8998 7.4002 54.2998 8.1002 54.8998 8.2002C54.6998 7.8002 54.3998 7.20019 54.2998 6.40019ZM59.2998 3.5002C59.2998 3.3002 59.1998 3.1002 59.2998 3.0002L58.8998 3.2002L58.6998 3.3002C58.6998 3.4002 58.7998 3.6002 58.8998 3.8002C59.0998 4.3002 59.4998 4.9002 59.7998 5.1002C59.5998 4.7002 59.3998 4.1002 59.2998 3.5002Z" fill="#25ABAD"/>
</svg>
