<svg viewBox="0 0 99 88" fill="none" xmlns="http://www.w3.org/2000/svg"><g clip-path="url(#a)"><path d="m7.4568 75.4206 4.3498 7.5025c.9039 1.5795 2.2032 2.8205 3.7284 3.7231l15.5351-26.8513H0c0 1.7487.452 3.4975 1.3558 5.0769l6.101 10.5488Z" fill="#0066DA"/><path d="M49.3167 28.2048 33.7816 1.3535c-1.5252.9026-2.8245 2.1436-3.7284 3.723L1.3558 54.7177A10.2103 10.2103 0 0 0 0 59.7945h31.0701l18.2466-31.5897Z" fill="#00AC47"/><path d="M83.0983 86.6462c1.5253-.9026 2.8246-2.1436 3.7284-3.7231l1.8077-3.1025 8.6432-14.9488c.9038-1.5794 1.3558-3.3282 1.3558-5.0769H67.561l6.6117 12.9744 8.9256 13.8769Z" fill="#EA4335"/><path d="m49.3168 28.2051 15.535-26.8513C63.3265.4514 61.5753 0 59.7676 0H38.8659c-1.8077 0-3.5589.5077-5.0842 1.3538l15.5351 26.8513Z" fill="#00832D"/><path d="M67.5631 59.7949H31.0699l-15.535 26.8513c1.5253.9026 3.2765 1.3539 5.0842 1.3539H78.014c1.8077 0 3.5589-.5077 5.0842-1.3539L67.5631 59.7949Z" fill="#2684FC"/><path d="M82.9288 29.8971 68.5801 5.0766c-.9039-1.5795-2.2032-2.8205-3.7284-3.723l-15.535 26.8512 18.2465 31.5897h31.0136c0-1.7487-.4519-3.4974-1.3558-5.0769L82.9288 29.8971Z" fill="#FFBA00"/></g><defs><clipPath id="a"><path fill="#fff" d="M0 0h98.6333v88H0z"/></clipPath></defs></svg>
