<svg viewBox="0 0 99 88" fill="none" xmlns="http://www.w3.org/2000/svg"><path d="M21.2837 82.8538 1.1799 48.0317a8.807 8.807 0 0 1 0-8.8067L21.2837 4.4037A8.8076 8.8076 0 0 1 28.9116 0h40.2077a8.8076 8.8076 0 0 1 7.6272 4.4037L96.8503 39.225a8.8067 8.8067 0 0 1 0 8.8074L76.7465 82.853a8.8075 8.8075 0 0 1-7.6272 4.4037H28.9116a8.8064 8.8064 0 0 1-7.6279-4.4037v.0008Z" fill="url(#a)"/><path opacity=".07" d="m37.7674 35.8746-5.3687 5.3534 4.5622 4.563-4.517 8.0231L66.628 87.999l8.2836.0016 16.1772-29.0545-25.6157-25.618-27.7057 2.5465Z" fill="#000"/><path d="M64.8464 32.8855H33.3426c-.5071 0-.9215.4236-.9215.9419v6.6459c0 .5167.4152.9403.9215.9403h31.5038c.5071 0 .9222-.4236.9222-.9403v-6.6474c0-.5167-.4144-.9411-.9215-.9411m-4.878 6.1881c-.4995-.0015-.978-.2047-1.331-.5653-.3529-.3606-.5515-.8492-.5523-1.3588a1.9562 1.9562 0 0 1 .1429-.7357 1.9248 1.9248 0 0 1 .4082-.6237 1.88 1.88 0 0 1 .6112-.4165 1.8496 1.8496 0 0 1 .721-.1459c1.0416 0 1.8855.8558 1.8855 1.9218a1.959 1.959 0 0 1-.1435.7363 1.9286 1.9286 0 0 1-.4088.6242 1.8828 1.8828 0 0 1-.6117.4171 1.8522 1.8522 0 0 1-.7215.1465Zm4.8773 6.5876-31.5038.0016c-.5071 0-.9215.4236-.9215.9418v6.6451c0 .5167.4152.9411.9215.9411h31.5038c.5071 0 .9222-.4244.9222-.9411v-6.6466c0-.5167-.4144-.9419-.9215-.9419m-4.878 6.1881c-.4995-.0012-.9782-.2044-1.3312-.565-.353-.3607-.5515-.8494-.5521-1.3591a1.9553 1.9553 0 0 1 .1429-.7356 1.9237 1.9237 0 0 1 .4082-.6237 1.8803 1.8803 0 0 1 .6112-.4166 1.8495 1.8495 0 0 1 .721-.1458c.2537-.0104.507.0316.7444.1235.2375.0919.4543.2319.6375.4114.1832.1796.3289.395.4284.6335.0996.2384.1509.4949.1509.7541s-.0513.5157-.1509.7541a1.9243 1.9243 0 0 1-.4284.6335c-.1832.1795-.4.3195-.6375.4114a1.8516 1.8516 0 0 1-.7444.1235" fill="#fff"/><defs><linearGradient id="a" x1="49.0155" y1=".0008" x2="49.0155" y2="87.1212" gradientUnits="userSpaceOnUse"><stop stop-color="#4387FD"/><stop offset="1" stop-color="#4683EA"/></linearGradient></defs></svg>
