<svg viewBox="0 0 88 88" fill="none" xmlns="http://www.w3.org/2000/svg"><path fill-rule="evenodd" clip-rule="evenodd" d="M44 0C19.69 0 0 19.69 0 44c0 19.47 12.595 35.915 30.085 41.745 2.2.385 3.025-.935 3.025-2.09 0-1.045-.055-4.51-.055-8.195C22 77.495 19.14 72.765 18.26 70.29c-.495-1.265-2.64-5.17-4.51-6.215-1.54-.825-3.74-2.86-.055-2.915 3.465-.055 5.94 3.19 6.765 4.51 3.96 6.655 10.285 4.785 12.815 3.63.385-2.86 1.54-4.785 2.805-5.885-9.79-1.1-20.02-4.895-20.02-21.725 0-4.785 1.705-8.745 4.51-11.825-.44-1.1-1.98-5.61.44-11.66 0 0 3.685-1.155 12.1 4.51 3.52-.99 7.26-1.485 11-1.485s7.48.495 11 1.485c8.415-5.72 12.1-4.51 12.1-4.51 2.42 6.05.88 10.56.44 11.66 2.805 3.08 4.51 6.985 4.51 11.825 0 16.885-10.285 20.625-20.075 21.725 1.595 1.375 2.97 4.015 2.97 8.14 0 5.885-.055 10.615-.055 12.1 0 1.155.825 2.53 3.025 2.09C75.405 79.915 88 63.415 88 44 88 19.69 68.31 0 44 0Z" fill="#1B1F23"/></svg>
