<svg viewBox="0 0 256 236" xmlns="http://www.w3.org/2000/svg" preserveAspectRatio="xMidYMid"><path d="m128.0748 236.0747 47.104-144.9704h-94.208l47.104 144.9704Z" fill="#E24329"/><path d="M128.0748 236.0744 80.9708 91.1041h-66.015l113.119 144.9703Z" fill="#FC6D26"/><path d="M14.9559 91.1044.6419 135.1596c-1.3057 4.018.1243 8.42 3.5425 10.9031l123.8906 90.012L14.9559 91.1045Z" fill="#FCA326"/><path d="M14.9559 91.1045h66.015L52.6002 3.7903c-1.4592-4.4934-7.8153-4.4922-9.2745 0L14.9559 91.1045Z" fill="#E24329"/><path d="m128.0748 236.0744 47.104-144.9703h66.0151L128.075 236.0744Z" fill="#FC6D26"/><path d="m241.194 91.1044 14.314 44.0552c1.3056 4.018-.1244 8.42-3.5426 10.9031l-123.8905 90.012 113.119-144.9703Z" fill="#FCA326"/><path d="M241.194 91.1045h-66.0151l28.3708-87.3142c1.4592-4.4934 7.8154-4.4922 9.2746 0l28.3696 87.3142Z" fill="#E24329"/></svg>
