<svg fill="none" xmlns="http://www.w3.org/2000/svg" viewBox="0 0 217 221"><g clip-path="url(#a)" fill-rule="evenodd" clip-rule="evenodd" fill="#000"><path d="m161.02 152.082 51.108-11.718a5.785 5.785 0 0 0 4.397-7.321L194.79 38.775a6.059 6.059 0 0 0-7.343-4.396L136.36 46.097a6.039 6.039 0 0 0-4.355 7.32l21.671 94.268a6.063 6.063 0 0 0 7.344 4.397ZM143.408 210.333l61.966-57.368c2.334-2.356 1.746-3.807-1.473-2.651l-42.587 9.678a10.794 10.794 0 0 0-7.638 7.026l-12.919 41.569c-.883 3.22.295 4.102 2.651 1.746ZM30.358 191.611l92.789 28.673a6.795 6.795 0 0 0 7.638-4.375l15.548-49.775a6.136 6.136 0 0 0-2.073-6.515 6.157 6.157 0 0 0-2.135-1.1l-92.789-28.4a6.19 6.19 0 0 0-7.637 4.207l-15.444 49.669a6.141 6.141 0 0 0 4.103 7.616ZM.395 89.727l18.81 82.361c.59 3.219 2.105 3.219 2.925 0l12.92-41.57a11.651 11.651 0 0 0-2.336-10.245L3.046 88.255c-2.062-2.42-3.598-1.746-2.65 1.472ZM72.944 1.686 1.868 67.47a6.017 6.017 0 0 0-.294 8.415l35.538 38.435a6.062 6.062 0 0 0 8.521.294l71.054-65.888a5.974 5.974 0 0 0 .295-8.415L81.507 1.897a6.018 6.018 0 0 0-8.563-.21ZM141.642 150.609c3.24.884 5.281-.862 4.418-4.207l-20.557-88.987c-.883-3.22-3.534-4.103-5.87-1.768l-66.951 62.186c-2.357 2.335-1.768 4.965 1.452 5.849l87.508 26.927ZM176.59 26.49 95.541 1.687c-3.219-.884-3.808.294-1.178 2.924l29.667 31.914a11.406 11.406 0 0 0 10.079 2.84l42.586-9.656c3.135-.884 3.135-2.357-.105-3.22Z"/></g><defs><clipPath id="a"><path fill="#fff" d="M0 0h216.765v220.399H0z"/></clipPath></defs></svg>
