<svg xmlns="http://www.w3.org/2000/svg" viewBox="0 0 28 28"><mask id="a" width="28" height="24" x="0" y="2" maskUnits="userSpaceOnUse"><path fill="#fff" d="M28 2H0v23.403h28V2Z"/></mask><g fill="#472F85" mask="url(#a)"><path d="M28.112 1.836v3.428l-.005 20.296h-5.506V3.832l1.725-1.757a.746.746 0 0 1 .574-.239h3.212ZM19.69 17.839c-.388-.498-.776-.995-1.156-1.375-.703-.701-1.402-1.407-2.1-2.113l-1.045-1.055v-2.442l.001-.005a.745.745 0 0 1 .169-.494l5.338-5.114v13.343l.001.164c.002.19.005.475-.001.518-.399-.391-.803-.91-1.206-1.427Z" opacity=".7"/><path d="M-.144 8.172v7.703l9.72 9.685h7.728L-.144 8.172ZM-.144 25.56H7l-7.144-7.117v7.117ZM19.91 25.56h7.653L4.481 2.075a.746.746 0 0 0-.574-.238H-.136V5.26l20.046 20.3Z"/></g></svg>
