<svg viewBox="0 0 253 68" fill="none" xmlns="http://www.w3.org/2000/svg"><path d="M30.5074 27.2775C27.0332 11.9684 19.7922 7.8929 17.945 5.012a32.7552 32.7552 0 0 1-2.0196-3.9485c-.0976 1.36-.2768 2.2168-1.4341 3.2481-2.3237 2.0695-12.1925 10.1025-13.023 27.4969-.7739 16.218 11.936 26.2186 13.6152 27.2522 1.2912.6346 2.8638.0136 3.6308-.569 6.1269-4.2001 14.498-15.3974 11.7999-31.2142" fill="#10AA50"/><path d="M16.4519 50.4238c-.32 4.0143-.5492 6.3467-1.3616 8.6406 0 0 .5333 3.8216.9077 7.8698h1.3252a73.5314 73.5314 0 0 1 1.4455-8.475c-1.7155-.8432-2.251-4.513-2.3168-8.0354Z" fill="#B8C4C2"/><path d="M18.7665 58.4615c-1.7337-.8001-2.2352-4.5469-2.3123-8.0376a164.351 164.351 0 0 0 .3744-17.306c-.0908-3.0283.0431-28.0477-.7466-31.7107a30.4215 30.4215 0 0 0 1.8631 3.6018c1.8471 2.8832 9.0904 6.9586 12.5623 22.2677 2.7049 15.7896-5.6208 26.9575-11.7409 31.1848Z" fill="#12924F"/><path d="M247.276 52.927a3.7624 3.7624 0 0 1-3.472-2.3095 3.7523 3.7523 0 0 1-.223-2.1655 3.7535 3.7535 0 0 1 1.016-1.926 3.7638 3.7638 0 0 1 1.914-1.041 3.765 3.765 0 0 1 2.17.1928 3.7572 3.7572 0 0 1 1.7 1.3619c.42.6115.65 1.3334.66 2.0748.014.4999-.074.9975-.258 1.4627a3.725 3.725 0 0 1-.811 1.2446 3.7211 3.7211 0 0 1-2.696 1.1052Zm0-7.1807a3.4267 3.4267 0 0 0-1.908.5651 3.4184 3.4184 0 0 0-1.272 1.5299 3.4106 3.4106 0 0 0-.206 1.978c.129.6652.452 1.2772.93 1.7585a3.4283 3.4283 0 0 0 3.733.7579 3.427 3.427 0 0 0 1.544-1.2563 3.426 3.426 0 0 0 .583-1.9014 3.3691 3.3691 0 0 0-.24-1.3163 3.3813 3.3813 0 0 0-.735-1.1187 3.3726 3.3726 0 0 0-2.429-.9967Zm.908 5.7981-.971-2.0922h-.783v2.0922h-.57v-4.76h1.405c1.046 0 1.482.4533 1.482 1.3305 0 .6982-.329 1.1334-.942 1.2671l1.003 2.1556-.624.0068Zm-1.731-2.584h.823c.668 0 .922-.2267.922-.8341 0-.6075-.243-.8138-.994-.8138h-.751v1.6479ZM191.247 49.499c1.019.8137 3.055 1.1492 4.849 1.1492 2.326 0 4.607-.4307 6.835-2.4412 2.27-2.0604 3.831-5.2134 3.831-10.2476 0-4.8371-1.843-8.763-5.623-11.0614-2.133-1.3396-4.897-1.8677-8.049-1.8677-.908 0-1.843.0476-2.374.2879a1.2415 1.2415 0 0 0-.438.68c-.095.8613-.095 7.421-.095 11.2993 0 3.9757 0 9.52.095 10.2.05.5757.341 1.5867.969 2.0105m-9.676-26.631c.824 0 3.955.1428 5.412.1428 2.723 0 4.605-.1428 9.694-.1428 4.267 0 7.856 1.1492 10.423 3.3501 3.104 2.6837 4.765 6.4169 4.765 10.9661 0 6.4646-2.95 10.2-5.916 12.3058-2.95 2.2032-6.787 3.4476-12.253 3.4476-2.909 0-7.904-.0952-12.073-.1428h-.086c-.195-.3831.356-1.8768.697-1.9154 1.134-.1269 1.434-.1722 1.956-.3876.88-.3604 1.087-.8092 1.184-2.389.146-2.9694.098-6.5122.098-10.5355 0-2.8719.048-8.4751-.048-10.2476-.147-1.4824-.773-1.8655-2.042-2.1533a26.3435 26.3435 0 0 0-2.723-.4307c-.095-.2879.649-1.5867.892-1.8677M223.881 25.3069c-.193.0476-.436.5282-.436.7662-.05 1.7249-.097 6.2242-.097 9.3364.012.0595.041.114.085.1567a.308.308 0 0 0 .157.0835c.629.0476 2.181.0975 3.49.0975 1.843 0 2.91-.2403 3.491-.5281 1.552-.7662 2.269-2.4435 2.269-4.2614 0-4.1661-2.909-5.746-7.223-5.746a13.0492 13.0492 0 0 0-1.745.0952m11.006 19.1534c0-4.2138-3.105-6.6074-8.778-6.6074-.24 0-2.042-.0476-2.471.0476-.145.0476-.29.1428-.29.2403 0 3.0169-.05 7.8517.097 9.7671.098.8137.681 1.9629 1.405 2.2984.776.4306 2.521.5258 3.733.5258 3.344 0 6.304-1.8654 6.304-6.2718Zm-19.756-21.4994c.438 0 1.727.1428 5.024.1428 3.102 0 5.623-.0952 8.623-.0952 3.733 0 8.87 1.3419 8.87 6.8952 0 2.72-1.938 4.9323-4.459 5.9863-.145.0476-.145.1428 0 .1904 3.588.9067 6.737 3.1121 6.737 7.3259 0 4.1185-2.568 6.7048-6.301 8.3322-2.269 1.0064-5.09 1.3396-7.942 1.3396-2.181 0-8.027-.2266-11.276-.1904-.341-.1428.311-1.6773.601-1.9153a8.9477 8.9477 0 0 0 2.199-.3445c1.162-.2856 1.3-.6596 1.446-2.3846.097-1.4846.097-6.8.097-10.583 0-5.1726.05-8.6655 0-10.3904-.048-1.3396-.533-1.7726-1.454-2.0106-.727-.145-1.938-.2878-2.907-.4306-.243-.2403.503-1.6774.744-1.8678M41.2431 52.9274a2.0964 2.0964 0 0 1-.1475-.9679 1.2291 1.2291 0 0 1 .1475-.646 16.4826 16.4826 0 0 0 1.8607-.3785c.8578-.2131 1.18-.68 1.2299-1.7726.1407-2.5817.1498-7.4256.0999-10.8301v-.0997c0-.3672 0-.8659-.4539-1.2172a9.747 9.747 0 0 0-2.571-1.1334c-.4062-.1201-.6308-.3332-.6195-.5825.0114-.2493.2678-.544.7965-.6483 1.4047-.1428 5.0853-1.02 6.5308-1.6864a.9555.9555 0 0 1 .1929.68c0 .1496-.0227.3083-.0386.4715-.0408.4805-.0862 1.0268-.0862 1.5708a.3583.3583 0 0 0 .4363.3012.3588.3588 0 0 0 .1719-.0949c2.7525-2.1556 5.2191-2.924 6.4831-2.924 2.0809 0 3.7011.9928 4.956 3.0373a.334.334 0 0 0 .2814.1655.3221.3221 0 0 0 .2632-.1406c2.5302-1.9176 5.0376-3.0622 6.7169-3.0622 3.9665 0 6.3379 2.967 6.3379 7.9333 0 1.428-.0136 3.2391-.0273 4.9277-.0113 1.4824-.0226 2.8719-.0226 3.833 0 .2266.3131.8794.7828 1.0086.581.2834 1.4183.4284 2.478.6098h.0409c.0794.2856-.0885 1.394-.2496 1.6206-.2633 0-.6264-.0226-1.0802-.0453-.8237-.0408-1.9538-.0975-3.2677-.0975-2.6368 0-4.0142.0499-5.3304.136-.0998-.3286-.1338-1.3894-.0136-1.6116a13.964 13.964 0 0 0 1.6157-.3513c.8396-.2765 1.0824-.6573 1.1346-1.7703.0204-.791.1725-7.761-.0976-9.4157-.2496-1.7159-1.543-3.7241-4.3727-3.7241-1.0507 0-2.7458.4374-4.3615 1.6614a.6345.6345 0 0 0-.1588.4103v.034c.1906.8931.1906 1.9357.1906 3.5111 0 .9066 0 1.8518-.0113 2.797-.0114 1.9222-.0205 3.7355.0113 5.1068 0 .9339.565 1.1583 1.0212 1.3374.2473.0544.4424.102.6399.1473.3789.0929.7738.1881 1.3615.2811.087.3982.0792.8112-.0227 1.2058a.9637.9637 0 0 1-.1702.4103c-1.4659-.0499-2.9704-.0929-5.142-.0929-.6581 0-1.7314.0272-2.68.0521-.7692.0204-1.4954.0408-1.9084.0431a1.8654 1.8654 0 0 1-.1452-.8342 1.4452 1.4452 0 0 1 .152-.7797l.5832-.1065c.5083-.0907.9485-.1678 1.3615-.272.7171-.2267.9872-.6166 1.0393-1.53.1407-2.1307.2497-8.2711-.0521-9.8079-.5129-2.4661-1.9175-3.7173-4.1777-3.7173-1.3229 0-2.9953.6369-4.3614 1.6592a1.3274 1.3274 0 0 0-.4017.986v2.5364c0 3.0826-.0204 6.9201.0545 8.5793.0454.5123.2269 1.1197 1.1868 1.3419.211.0612.5741.1201.9962.1904.2428.0408.5083.0838.7829.1337a3.4323 3.4323 0 0 1-.1294 1.6207c-.4221 0-.9417-.0272-1.5362-.0522-.9077-.0408-2.0423-.0906-3.3244-.0906-1.5159 0-2.5711.0498-3.4175.0906-.5696.0272-1.062.0499-1.5544.0522M89.9064 35.0179a4.138 4.138 0 0 0-2.3146.6505c-1.6837 1.0223-2.5415 3.0646-2.5415 6.0656 0 5.6168 2.8161 9.5404 6.8485 9.5404a4.314 4.314 0 0 0 2.9545-1.0449c1.239-1.0087 1.8971-3.0713 1.8971-5.9591 0-5.5329-2.7526-9.2525-6.8485-9.2525m.776 18.3396c-7.2841 0-9.8779-5.338-9.8779-10.3315 0-3.4884 1.4274-6.2152 4.2435-8.1078a12.9689 12.9689 0 0 1 6.5557-1.9358c5.5574 0 9.4398 3.9916 9.4398 9.7104 0 3.8851-1.5497 6.9542-4.4838 8.8718-1.4092.8613-3.8577 1.7929-5.8773 1.7929ZM164.064 35.0179a4.1274 4.1274 0 0 0-2.319.6505c-1.684 1.0223-2.541 3.0646-2.541 6.0656 0 5.6168 2.816 9.5404 6.848 9.5404a4.3159 4.3159 0 0 0 2.964-1.0449c1.239-1.0087 1.894-3.0713 1.894-5.9591 0-5.5329-2.75-9.2525-6.846-9.2525Zm.776 18.3396c-7.284 0-9.878-5.338-9.878-10.3292 0-3.4929 1.428-6.2175 4.246-8.1101a12.945 12.945 0 0 1 6.554-1.9358c5.557 0 9.44 3.9939 9.44 9.7082 0 3.8896-1.55 6.9564-4.484 8.8717-1.41.8636-3.858 1.7952-5.878 1.7952ZM139.539 34.828c-2.245 0-3.697 1.7703-3.697 4.5107s1.25 5.9976 4.765 5.9976c.604 0 1.698-.2675 2.24-.8636.817-.7503 1.362-2.3007 1.362-3.9372 0-3.5745-1.743-5.7075-4.659-5.7075m-.29 18.9131a3.7022 3.7022 0 0 0-1.816.4533c-1.777 1.1334-2.6 2.2667-2.6 3.5836 0 1.2331.478 2.2146 1.509 3.085 1.248 1.0562 2.932 1.5708 5.144 1.5708 4.355 0 6.306-2.3392 6.306-4.6558 0-1.6138-.81-2.695-2.478-3.307-1.284-.4692-3.431-.7276-6.059-.7276m.291 11.1066c-2.614 0-4.498-.5508-6.107-1.7884-1.565-1.2058-2.269-2.9965-2.269-4.2341a3.3112 3.3112 0 0 1 .858-2.1533c.454-.5168 1.509-1.4847 3.948-3.1598a.2107.2107 0 0 0 .093-.0771.1986.1986 0 0 0 .034-.1155.2006.2006 0 0 0-.042-.1268.2002.2002 0 0 0-.112-.0727c-2.008-.7684-2.614-2.04-2.798-2.72 0-.0249 0-.0635-.02-.1065-.057-.2675-.111-.5214.254-.782.281-.1995.731-.467 1.212-.7503.679-.3755 1.33-.7989 1.949-1.2671a.3208.3208 0 0 0 .072-.1252.3193.3193 0 0 0 .009-.1441.3004.3004 0 0 0-.055-.1336.3155.3155 0 0 0-.108-.0957c-2.972-.9974-4.47-3.2028-4.47-6.5734a6.5306 6.5306 0 0 1 .714-3.0251 6.5366 6.5366 0 0 1 2.032-2.3537c1.196-.9452 4.198-2.0808 6.142-2.0808h.114c1.999.0476 3.127.467 4.688 1.0427.888.3208 1.829.47 2.773.4397 1.654 0 2.378-.5236 3-1.1333.101.2747.154.5643.159.8568a3.224 3.224 0 0 1-.54 1.9675c-.338.4692-1.135.8092-1.863.8092-.075 0-.148 0-.227-.0114a6.1157 6.1157 0 0 1-1.135-.1881l-.186.0657c-.059.0862-.02.1814.027.3038.012.0239.021.049.028.0748.132.6049.223 1.2184.27 1.836 0 3.5246-1.391 5.0592-2.896 6.197a9.8917 9.8917 0 0 1-4.992 1.9312c-.039 0-.227.0159-.581.0476-.227.0204-.522.0476-.565.0476h-.043c-.327.0907-1.18.4964-1.18 1.2512 0 .6256.385 1.4031 2.23 1.5436l1.194.0839c2.433.17 5.471.3808 6.901.8636a4.7773 4.7773 0 0 1 2.34 1.7813c.573.8249.872 1.8093.852 2.8132 0 3.162-2.251 6.1359-6.02 7.9538a13.0935 13.0935 0 0 1-5.693 1.2761M128.406 51.2406c-1.067-.1428-1.845-.2879-2.764-.7185a1.2689 1.2689 0 0 1-.34-.68c-.098-1.4847-.098-5.7936-.098-8.6134 0-2.3006-.386-4.3066-1.361-5.746-1.165-1.6297-2.812-2.5862-4.945-2.5862-1.89 0-4.411 1.292-6.495 3.0645-.05.0476-.369.3513-.363-.1201.007-.4715.08-1.428.125-2.04.02-.1626.002-.3277-.053-.482a1.0466 1.0466 0 0 0-.265-.4066c-1.361.68-5.18 1.5867-6.594 1.725-1.03.1994-1.291 1.19-.191 1.5323h.016a9.428 9.428 0 0 1 2.497 1.097c.435.3355.388.8138.388 1.1968.047 3.2073.047 8.1396-.098 10.8211-.048 1.054-.34 1.437-1.116 1.6297l.072-.0249c-.591.1479-1.19.2599-1.795.3355-.243.238-.243 1.6274 0 1.9153.486 0 2.95-.1428 4.992-.1428 2.81 0 4.264.1428 4.993.1428.292-.3355.388-1.6275.195-1.9153a10.2286 10.2286 0 0 1-1.99-.2879c-.774-.1904-.969-.5758-1.017-1.4348-.095-2.2531-.095-7.0403-.095-10.2975 0-.9066.24-1.3396.531-1.5866.969-.8614 2.571-1.4348 3.976-1.4348 1.361 0 2.269.4306 2.95 1.0041a4.1012 4.1012 0 0 1 1.388 2.7064c.193 1.8133.143 5.4604.143 8.6133 0 1.7249-.143 2.1579-.774 2.3483-.29.1428-1.066.2879-1.987.383-.291.2879-.196 1.6275 0 1.9154 1.259 0 2.723-.1428 4.847-.1428 2.666 0 4.363.1428 5.042.1428.29-.3355.388-1.5867.195-1.9154" fill="#21313C"/></svg>
