<svg viewBox="0 0 130 88" fill="none" xmlns="http://www.w3.org/2000/svg"><g clip-path="url(#a)"><path d="M30.4662 80.3307h-4.8891c-.172-8.2637-.6487-16.0342-1.4277-23.3129h-.0431l-7.4438 23.3129h-3.7233l-7.399-23.3129h-.0438c-.5489 6.9905-.8946 14.7609-1.0383 23.3129H0C.288 69.93 1.0088 60.1801 2.163 51.0791h6.0598l7.0541 21.4932h.0431l7.0974-21.4932h5.7984c1.2697 10.6589 2.0193 20.4117 2.2495 29.2516m21.21-21.5813c-1.9912 10.8174-4.6174 18.6785-7.8771 23.5826-2.54 3.7786-5.3223 5.6677-8.3521 5.6677-.8077 0-1.8038-.2435-2.9857-.7274v-2.6077c.5776.0847 1.255.1297 2.034.1297 1.4137 0 2.5528-.3912 3.4193-1.1718 1.0382-.9514 1.5573-2.0208 1.5573-3.2057 0-.8093-.4048-2.4702-1.2116-4.9824l-5.3661-16.685h4.8033l3.8512 12.4786c.8652 2.8334 1.2263 4.8112 1.0816 5.9387 2.1065-5.6335 3.578-11.773 4.4151-18.4173h4.6305" fill="#00758F"/><path d="M73.0931 72.2235c0 2.4805-.9103 4.5171-2.7249 6.1105-1.8159 1.5865-4.2557 2.3818-7.3106 2.3818-2.8574 0-5.6267-.9153-8.3091-2.7314l1.2547-2.5125c2.3083 1.1555 4.3978 1.7323 6.2731 1.7323 1.7594 0 3.1365-.3919 4.1326-1.1666.9942-.7803 1.59-1.8683 1.59-3.2485 0-1.7368-1.2099-3.2213-3.4294-4.4668-2.049-1.1262-6.1438-3.4767-6.1438-3.4767-2.2188-1.6205-3.3311-3.3596-3.3311-6.2246 0-2.3698.8293-4.285 2.4865-5.7421 1.6605-1.4604 3.8029-2.1904 6.4265-2.1904 2.7121 0 5.1781.7248 7.3992 2.1689l-1.1284 2.5106c-1.9001-.807-3.7741-1.212-5.622-1.212-1.4993 0-2.6544.3603-3.4601 1.0858-.8097.7186-1.3105 1.6436-1.3105 2.7711 0 1.7323 1.236 3.235 3.5178 4.5047 2.0749 1.1265 6.2702 3.5226 6.2702 3.5226 2.2821 1.6176 3.4193 3.3424 3.4193 6.1833Z" fill="#F29111"/><path fill-rule="evenodd" clip-rule="evenodd" d="M81.8337 74.4795c-1.1835-1.9068-1.7761-4.9668-1.7761-9.1859 0-7.3654 2.2364-11.0508 6.708-11.0508 2.3376 0 4.0536.8817 5.1509 2.6427 1.1819 1.9074 1.7745 4.9409 1.7745 9.101 0 7.4245-2.2368 11.1385-6.708 11.1385-2.3373 0-4.0536-.8806-5.1493-2.6452m17.3964 6.5569-5.3694-2.6515c.478-.3925.9321-.8161 1.3432-1.3065 2.2798-2.6834 3.4206-6.6556 3.4206-11.9145 0-9.6772-3.7938-14.5187-11.3813-14.5187-3.7219 0-6.6224 1.2273-8.6992 3.685-2.2805 2.6867-3.4192 6.6443-3.4192 11.8732 0 5.1418 1.0088 8.9138 3.0284 11.31 1.8401 2.1656 4.623 3.2501 8.3482 3.2501 1.3902 0 2.6655-.1715 3.8245-.5142l6.9926 4.0746 1.9067-3.2879" fill="#F29111"/><path d="M116.758 80.3307h-13.891V51.0791h4.675v25.6533h9.216v3.5983Zm3.333-.0029h.775v-2.9762h1.013v-.6078h-2.84v.6078h1.052v2.9762Zm5.894 0h.73v-3.584h-1.098l-.894 2.4428-.973-2.4428h-1.057v3.584h.69V77.6h.039l1.019 2.7278h.527l1.017-2.7278v2.7278Z" fill="#F29111"/><path fill-rule="evenodd" clip-rule="evenodd" d="M122.625 41.2815c-2.825-.0707-5.013.2113-6.847.9896-.53.2119-1.376.2119-1.448.8836.284.282.318.7411.567 1.1314.422.7072 1.162 1.6596 1.834 2.1558.741.566 1.482 1.1295 2.26 1.6238 1.376.8522 2.929 1.3449 4.269 2.1933.779.4943 1.552 1.1298 2.331 1.6615.387.2824.632.7428 1.128.9176v-.107c-.248-.3172-.318-.7766-.563-1.132-.353-.3509-.707-.671-1.06-1.0229-1.024-1.3782-2.297-2.5787-3.67-3.5683-1.13-.7795-3.602-1.8402-4.059-3.1441l-.072-.072c.777-.0717 1.696-.3551 2.437-.5693 1.198-.3172 2.292-.2455 3.528-.5628.565-.1424 1.13-.3201 1.697-.4939v-.3205c-.639-.6345-1.096-1.4842-1.766-2.0845-1.799-1.5546-3.778-3.0733-5.824-4.3475-1.096-.7069-2.508-1.164-3.673-1.7666-.422-.2126-1.127-.3172-1.375-.6726-.636-.7773-.99-1.8008-1.448-2.7212-1.022-1.9417-2.013-4.0969-2.893-6.15-.635-1.3776-1.024-2.7551-1.801-4.028-3.637-6.0098-7.5885-9.6478-13.6598-13.2181-1.306-.7434-2.8587-1.0613-4.5163-1.45-.8838-.0371-1.7656-.106-2.6478-.1405-.5658-.2484-1.1313-.9204-1.6246-1.2386C81.7158 2.756 76.5295 0 75.046 3.6397c-.9533 2.2986 1.412 4.5595 2.224 5.7264.5998.8119 1.3771 1.7323 1.7989 2.6498.2472.6009.318 1.2383.5662 1.8735.5641 1.5549 1.0927 3.2872 1.8355 4.7368.3869.7425.81 1.5211 1.3039 2.1895.2851.3912.7777.5653.8838 1.2037-.4923.7059-.5308 1.7663-.8129 2.6505-1.27 3.9941-.7767 8.9416 1.0242 11.8748.5635.8836 1.9066 2.8278 3.7066 2.0838 1.5883-.6349 1.2354-2.6495 1.6938-4.4157.1057-.4272.0349-.7076.2458-.9896v.0714c.494.9879.9896 1.94 1.448 2.9328 1.096 1.73 3.0004 3.5331 4.5897 4.7336.8449.6388 1.5159 1.7326 2.5746 2.1226v-.1069h-.0692c-.2125-.3173-.5295-.4598-.8123-.7059-.635-.6365-1.3392-1.4144-1.8355-2.121-1.4819-1.9785-2.7894-4.1708-3.9517-6.4326-.5665-1.0982-1.0595-2.2987-1.5188-3.3936-.2113-.4222-.2113-1.0603-.5649-1.2716-.5308.7764-1.3056 1.449-1.6931 2.4004-.6713 1.5214-.7411 3.3942-.9902 5.3391-.1404.0368-.0693 0-.1404.0701-1.128-.2824-1.5166-1.4487-1.941-2.435-1.0588-2.5125-1.2367-6.5415-.3176-9.4401.2458-.7408 1.3079-3.0733.8824-3.7802-.2135-.6743-.9184-1.0597-1.3059-1.5918-.4581-.6717-.955-1.5181-1.2694-2.2618-.8479-1.9785-1.2739-4.1708-2.1887-6.1493-.4238-.9205-1.1666-1.8748-1.7647-2.7216-.6719-.9543-1.4123-1.6256-1.9426-2.7554-.175-.3896-.4224-1.0264-.141-1.449.0692-.2833.2125-.39.4956-.4607.4561-.389 1.7637.105 2.2217.317 1.307.5288 2.401 1.0263 3.4937 1.7671.495.3541 1.0242 1.0254 1.6586 1.2038h.7427c1.129.2455 2.4004.0685 3.4601.388 1.8695.6006 3.5633 1.4839 5.0821 2.4385 4.6224 2.9338 8.434 7.1053 11.01 12.0877.424.8119.602 1.5549.99 2.4014.741 1.7352 1.66 3.5024 2.4 5.1972.74 1.6612 1.448 3.3564 2.508 4.7369.528.7407 2.646 1.1297 3.599 1.5187.705.3169 1.801.6003 2.436.9886 1.2.7408 2.398 1.5905 3.529 2.4046.564.4239 2.329 1.3068 2.435 2.0147" fill="#00758F"/><path fill-rule="evenodd" clip-rule="evenodd" d="M86.6223 10.5636a5.6488 5.6488 0 0 0-1.447.1777v.0708h.0686c.285.564.7796.956 1.1296 1.4499.284.5657.5318 1.1291.8136 1.6955.0349-.0349.0686-.0717.0686-.0717.4978-.3522.7443-.9169.7443-1.7666-.2132-.2491-.2465-.4946-.4244-.7431-.2112-.3524-.6703-.5291-.9533-.8125Z" fill="#00758F"/></g><defs><clipPath id="a"><path fill="#fff" d="M0 0h129.432v88H0z"/></clipPath></defs></svg>
