<svg fill="none" xmlns="http://www.w3.org/2000/svg" viewBox="0 0 250 159"><g clip-path="url(#a)"><path d="m95.332 44.155.002-.009 52.482 31.21 31.273-13.066.001.005a50.918 50.918 0 0 1 20.129-4.124c1.153 0 2.293.052 3.428.127A77.464 77.464 0 0 0 179.8 20.424 78.36 78.36 0 0 0 139.839 1.06a78.651 78.651 0 0 0-44.131 5.418C81.836 12.489 70.022 22.37 61.7 34.922c.268-.003.531-.02.799-.02a62.53 62.53 0 0 1 32.832 9.253Z" fill="#0364B8"/><path d="m95.334 44.146-.002.009A62.53 62.53 0 0 0 62.5 34.902c-.268 0-.532.017-.799.02a62.81 62.81 0 0 0-32.105 9.28A62.199 62.199 0 0 0 6.909 68.59a61.645 61.645 0 0 0-6.768 32.509 61.736 61.736 0 0 0 11.088 31.319l46.281-19.335 20.574-8.595 45.809-19.138 23.923-9.995-52.482-31.209Z" fill="#0078D4"/><path d="M202.647 58.298a51.75 51.75 0 0 0-3.428-.127 50.918 50.918 0 0 0-20.129 4.124l-.001-.005-31.273 13.065 9.068 5.393 29.726 17.677 12.97 7.712 44.346 26.372a50.127 50.127 0 0 0 6.073-24.173 50.132 50.132 0 0 0-6.327-24.109 50.561 50.561 0 0 0-17.183-18.157 51.034 51.034 0 0 0-23.842-7.772Z" fill="#1490DF"/><path d="m199.58 106.137-12.97-7.712-29.726-17.677-9.068-5.393-23.923 9.995-45.809 19.138-20.574 8.595-46.28 19.335a62.266 62.266 0 0 0 22.346 19.543A62.781 62.781 0 0 0 62.5 159h136.719a51.044 51.044 0 0 0 26.034-7.123 50.562 50.562 0 0 0 18.673-19.368l-44.346-26.372Z" fill="#28A8EA"/></g><defs><clipPath id="a"><path fill="#fff" d="M0 0h250v159H0z"/></clipPath></defs></svg>
