<svg viewBox="0 0 80 88" fill="none" xmlns="http://www.w3.org/2000/svg"><g clip-path="url(#a)"><path d="m39.8384 67.2845 33.4644 7.9677V12.5713L39.8384 20.539v46.7455Z" fill="#205B97"/><path d="m73.3028 12.5713 6.3741 3.1871v56.3067l-6.3741 3.1871V12.5713ZM39.8384 67.2845 6.374 75.2522V12.5713l33.4644 7.9677v46.7455Z" fill="#5193CE"/><path d="M6.3742 12.5713 0 15.7584v56.3067l6.3742 3.1871V12.5713Z" fill="#205B97"/><path d="m48.3392 88 12.7483-6.3742V6.3742L48.3392 0l-3.8975 41.7873L48.3392 88Z" fill="#5193CE"/><path d="m31.3379 88-12.7483-6.3742V6.3742L31.3379 0l3.8975 41.7873L31.3379 88Z" fill="#205B97"/><path d="M31.3379 0h17.1737v87.8224H31.3379V0Z" fill="#2E73B7"/></g><defs><clipPath id="a"><path fill="#fff" d="M0 0h79.6771v88H0z"/></clipPath></defs></svg>
