<svg viewBox="0 0 88 88" fill="none" xmlns="http://www.w3.org/2000/svg"><path fill-rule="evenodd" clip-rule="evenodd" d="M29.3883 45.6084c.1862-.584.2638-1.1858.2498-1.7799-.0216-.4302-.0776-.8598-.2002-1.2901-.3694-1.3356-1.2441-2.5289-2.5549-3.2812L8.24 28.5429c-2.6318-1.5078-5.987-.6112-7.4974 2.0044-1.525 2.6118-.6256 5.9475 2.0062 7.459l10.4178 5.9969-10.4178 5.9803C.117 51.4976-.7792 54.8339.7426 57.4565c1.5104 2.6087 4.8656 3.5008 7.4974 1.993l18.643-10.7212c1.258-.7207 2.1118-1.8507 2.5053-3.1199Zm5.0595 10.0404a5.4237 5.4237 0 0 0-3.1868.7137L12.604 67.0699c-2.6248 1.5109-3.5211 4.8643-2.0062 7.4806 1.5218 2.6093 4.8738 3.5077 7.4948 1.9898l10.4527-6.0012v11.9917c0 3.0212 2.4557 5.4692 5.495 5.4692 3.0246 0 5.488-2.448 5.488-5.4692V61.0933c0-2.8782-2.2415-5.242-5.0805-5.4445Zm19.1064-23.2983c1.068.088 2.1786-.1392 3.1804-.713L75.3878 20.92c2.6286-1.5116 3.5205-4.851 2.0095-7.4743-1.5143-2.6112-4.8695-3.507-7.4942-1.9968l-10.4458 6.0082V5.4616C59.4573 2.4486 57.0016 0 53.9624 0c-3.0393 0-5.4886 2.4486-5.4886 5.4616V26.899c0 2.875 2.2351 5.2426 5.0804 5.4514ZM12.604 20.92l18.657 10.7175c1.0019.5738 2.1156.801 3.1868.713 2.839-.2088 5.0805-2.5764 5.0805-5.4514V5.4616c0-3.013-2.4634-5.4616-5.488-5.4616-3.0393 0-5.495 2.4486-5.495 5.4616V17.457l-10.4527-6.0082c-2.621-1.5103-5.973-.6144-7.4948 1.9968-1.515 2.6233-.6186 5.9627 2.0062 7.4743Zm35.0618 23.0382c0-.3113-.1894-.7453-.4107-.9756l-2.2452-2.2246c-.2213-.2196-.6574-.4018-.9708-.4018h-.087c-.3128 0-.7483.1822-.9663.4018l-2.2453 2.2246c-.225.2303-.3973.6643-.3973.9756v.0874c0 .3075.1723.7377.3973.9617l2.2453 2.2309c.2212.2202.6535.4018.9663.4018h.087c.3134 0 .7495-.1816.9708-.4018l2.2452-2.2309c.2213-.224.4107-.6542.4107-.9617v-.0874Zm6.198 2.1399-7.7542 7.7083c-.2219.2265-.6503.4119-.9732.4119h-2.2803c-.3134 0-.7488-.1854-.9739-.4119l-7.7504-7.7083c-.2218-.217-.4011-.6536-.4011-.9618V42.8637c0-.3151.1793-.7523.4011-.9725l7.7504-7.7077c.2251-.2272.6605-.4056.9739-.4056h2.2803c.3159 0 .7513.1784.9732.4056l7.7542 7.7077c.2212.2202.4005.6574.4005.9725v2.2726c0 .3082-.1793.7448-.4005.9618Zm21.524 20.9718L56.7346 56.3625a5.4088 5.4088 0 0 0-3.1804-.7137c-2.8453.2025-5.0804 2.5663-5.0804 5.4445v21.4375c0 3.0212 2.4493 5.4692 5.4886 5.4692 3.0392 0 5.4949-2.448 5.4949-5.4692V70.5391l10.4458 6.0012c2.6241 1.5179 5.9799.6195 7.4942-1.9898 1.511-2.6163.6191-5.9697-2.0095-7.4806Zm9.8628-29.0636-10.4184 5.9969 10.4184 5.9803c2.6312 1.5141 3.5307 4.8504 2.0095 7.473-1.5181 2.6087-4.8764 3.5008-7.498 1.993L61.105 48.7283c-1.244-.7207-2.1079-1.8507-2.4913-3.1199-.1824-.584-.267-1.1858-.246-1.7799a5.297 5.297 0 0 1 .1933-1.2901c.3731-1.3356 1.2478-2.5283 2.544-3.2812l18.6571-10.7143c2.6216-1.5078 5.9799-.6112 7.498 2.0044 1.5212 2.6118.6217 5.9475-2.0095 7.459Z" fill="#29B5E8"/></svg>
