<svg fill="none" xmlns="http://www.w3.org/2000/svg" viewBox="0 0 184 244"><path d="M92 66.931c-50.808 0-92-14.325-92-33.236v177.069C0 228.958 40.474 243.713 90.708 244H92c50.808 0 92-14.326 92-33.236V33.695c0 18.48-41.192 33.236-92 33.236Z" fill="url(#a)"/><path d="M184 33.695c0 18.736-41.192 33.696-92 33.696S0 52.867 0 33.695C0 14.524 41.192 0 92 0s92 14.524 92 33.695Z" fill="#E8E8E8"/><path d="M163.038 30.139c0 11.627-31.909 20.985-71.038 20.985s-71.038-9.358-71.038-20.985c0-11.627 31.91-20.844 71.038-20.844 39.129 0 71.038 9.359 71.038 20.844Z" fill="#50E6FF"/><path d="M92 36.096c-18.964-.453-37.87 2.14-55.899 7.67C54.146 49.19 73.06 51.648 92 51.03c18.98.52 37.907-2.121 55.899-7.803-18.079-5.273-36.972-7.683-55.899-7.13Z" fill="#198AB3"/><path d="M148.549 155.96v-48.321h-13.063v58.696h35.704V155.96h-22.641ZM44.921 132.226a26.676 26.676 0 0 1-7.402-4.406 6.238 6.238 0 0 1-1.34-2.102 6.134 6.134 0 0 1-.401-2.446 4.747 4.747 0 0 1 .514-2.413 4.87 4.87 0 0 1 1.663-1.851 10.028 10.028 0 0 1 6.095-1.705 23.872 23.872 0 0 1 14.514 4.122v-12.223a38.182 38.182 0 0 0-14.514-2.274c-5.694-.297-11.308 1.418-15.82 4.832a15.416 15.416 0 0 0-4.604 5.605 15.079 15.079 0 0 0-1.491 7.044c0 7.248 4.644 12.933 14.513 17.197a41.98 41.98 0 0 1 8.999 5.116 5.986 5.986 0 0 1 1.6 2.039c.377.785.573 1.641.577 2.509 0 .862-.21 1.712-.614 2.479a5.427 5.427 0 0 1-1.708 1.926 11.957 11.957 0 0 1-6.532 1.564c-5.837-.047-11.459-2.168-15.82-5.969v13.217a32.046 32.046 0 0 0 15.53 3.411 27.717 27.717 0 0 0 17.126-4.69 15.326 15.326 0 0 0 3.958-5.912 15.05 15.05 0 0 0 .832-7.021 14.731 14.731 0 0 0-3.629-9.948 35.142 35.142 0 0 0-12.046-8.101Zm76.052 22.597a32.72 32.72 0 0 0 4.789-17.907 32.485 32.485 0 0 0-4.789-15.065 25.947 25.947 0 0 0-10.16-10.659 29.507 29.507 0 0 0-14.514-3.695 31.14 31.14 0 0 0-15.674 3.837 26.704 26.704 0 0 0-10.595 10.517 34.364 34.364 0 0 0-3.774 16.202 31.58 31.58 0 0 0 3.484 14.212 25.24 25.24 0 0 0 10.014 10.517 30.357 30.357 0 0 0 14.513 4.263l12.482 14.212h17.562l-17.852-15.633c6.011-1.766 11.167-5.602 14.514-10.801Zm-14.514-3.553a13.599 13.599 0 0 1-4.919 3.755 13.893 13.893 0 0 1-6.111 1.219 13.592 13.592 0 0 1-6.148-1.252 13.304 13.304 0 0 1-4.883-3.864 21.285 21.285 0 0 1-4.209-14.212 21.42 21.42 0 0 1 4.21-14.212 14.474 14.474 0 0 1 5.05-3.888 14.79 14.79 0 0 1 6.27-1.371 12.86 12.86 0 0 1 6.13 1.265 12.545 12.545 0 0 1 4.755 3.994 22.668 22.668 0 0 1 3.919 14.212 20.44 20.44 0 0 1-4.064 14.354Z" fill="url(#b)"/><defs><radialGradient id="b" cx="0" cy="0" r="1" gradientUnits="userSpaceOnUse" gradientTransform="matrix(102.612 0 0 100.479 97.17 144.164)"><stop stop-color="#F2F2F2"/><stop offset=".58" stop-color="#EEE"/><stop offset="1" stop-color="#E6E6E6"/></radialGradient><linearGradient id="a" x1="0" y1="138.848" x2="184" y2="138.848" gradientUnits="userSpaceOnUse"><stop stop-color="#005BA1"/><stop offset=".07" stop-color="#0060A9"/><stop offset=".36" stop-color="#0071C8"/><stop offset=".52" stop-color="#0078D4"/><stop offset=".64" stop-color="#0074CD"/><stop offset=".82" stop-color="#006ABB"/><stop offset="1" stop-color="#005BA1"/></linearGradient></defs></svg>
