<svg viewBox="0 0 261 68" fill="none" xmlns="http://www.w3.org/2000/svg"><path d="M68.1238 41.977c.2397 2.3973 2.4373 6.4727 8.7102 6.4727 5.4739 0 8.111-3.4761 8.111-6.8723 0-3.0765-2.0777-5.5538-6.1931-6.4328l-2.9567-.6393c-1.1587-.1998-1.9179-.839-1.9179-1.8779 0-1.1986 1.1987-2.0777 2.6771-2.0777 2.3973 0 3.2763 1.5583 3.4361 2.7969l4.7147-1.0788c-.2397-2.2375-2.2375-6.0332-8.1908-6.0332-4.515 0-7.8312 3.1165-7.8312 6.8323 0 2.9168 1.8379 5.354 5.8734 6.2331l2.7569.6393c1.5982.3595 2.2375 1.1187 2.2375 2.0377 0 1.1187-.879 2.0776-2.7569 2.0776-2.4772 0-3.6759-1.5183-3.8357-3.1964l-4.8346 1.1188Zm34.8812 5.8334h5.394c-.08-.7192-.2-2.1575-.2-3.7957V26.8738h-5.634v12.1465c0 2.4372-1.438 4.1154-3.9553 4.1154-2.637 0-3.8357-1.8779-3.8357-4.1953V26.8738h-5.6737v13.2253c0 4.5549 2.8768 8.2308 7.9511 8.2308 2.1976 0 4.6346-.8391 5.7936-2.7969-.04.879.04 1.8379.16 2.2774Zm16.861 8.071V45.7727c1.039 1.3985 3.156 2.5572 6.033 2.5572 5.914 0 9.869-4.6748 9.869-11.0277 0-6.1931-3.516-10.8679-9.629-10.8679-3.157 0-5.474 1.3985-6.433 3.0366v-2.5571h-5.474v28.9676h5.634Zm10.308-18.5392c0 3.7558-2.277 5.9133-5.194 5.9133-2.877 0-5.234-2.1975-5.234-5.9133 0-3.7159 2.317-5.8735 5.234-5.8735 2.877 0 5.194 2.1576 5.194 5.8735Zm8.751 4.7546c0 3.2764 2.717 6.313 7.192 6.313 3.116 0 5.114-1.4384 6.153-3.1165 0 .7991.08 1.9578.2 2.5171h5.194c-.12-.7192-.24-2.1975-.24-3.3162V34.1857c0-4.1953-2.477-7.9511-9.07-7.9511-5.594 0-8.63 3.5959-8.95 6.8723l4.995 1.0788c.159-1.838 1.518-3.3962 3.995-3.3962 2.397 0 3.516 1.2386 3.516 2.7169 0 .7192-.399 1.3186-1.558 1.4784l-5.154.7591c-3.516.5195-6.273 2.5971-6.273 6.3529Zm8.39 2.0777c-1.838 0-2.717-1.1986-2.717-2.4373 0-1.5982 1.159-2.4372 2.597-2.637l4.715-.7192v.919c-.04 3.7558-2.237 4.8745-4.595 4.8745Zm21.257 3.6359v-2.5571c1.118 1.798 3.316 3.0766 6.193 3.0766 5.953 0 9.869-4.7148 9.869-11.0677 0-6.193-3.516-10.9477-9.63-10.9477-3.116 0-5.394 1.3585-6.313 2.8368V17.0049h-5.553v30.7656h5.434v.0399ZM179 37.3022c0 3.8357-2.278 5.9533-5.194 5.9533-2.837 0-5.234-2.1575-5.234-5.9533 0-3.8357 2.397-5.9134 5.234-5.9134 2.876 0 5.194 2.0777 5.194 5.9134Zm8.83 4.7946c0 3.2764 2.717 6.313 7.192 6.313 3.116 0 5.114-1.4384 6.153-3.1165 0 .7991.08 1.9578.2 2.5171h5.194c-.12-.7192-.24-2.1975-.24-3.3162V34.1857c0-4.1953-2.477-7.9511-9.07-7.9511-5.593 0-8.63 3.5959-8.95 6.8723l4.995 1.0788c.16-1.838 1.518-3.3962 3.995-3.3962 2.398 0 3.516 1.2386 3.516 2.7169 0 .7192-.399 1.3186-1.558 1.4784l-5.154.7591c-3.516.5195-6.273 2.5971-6.273 6.3529Zm8.351 2.0777c-1.838 0-2.717-1.1986-2.717-2.4373 0-1.5982 1.158-2.4372 2.597-2.637l4.715-.7192v.919c0 3.7558-2.198 4.8745-4.595 4.8745Zm14.024-2.1975c.24 2.3973 2.437 6.4727 8.71 6.4727 5.474 0 8.111-3.4761 8.111-6.8723 0-3.0765-2.077-5.5538-6.193-6.4328l-2.957-.6393c-1.158-.1998-1.917-.839-1.917-1.8779 0-1.1986 1.198-2.0777 2.677-2.0777 2.397 0 3.276 1.5583 3.436 2.7969l4.714-1.0788c-.239-2.2375-2.237-6.0332-8.19-6.0332-4.515 0-7.832 3.1165-7.832 6.8323 0 2.9168 1.838 5.354 5.874 6.2331l2.757.6393c1.598.3595 2.237 1.1187 2.237 2.0377 0 1.1187-.879 2.0776-2.757 2.0776-2.477 0-3.676-1.5183-3.835-3.1964l-4.835 1.1188Zm25.412-7.0322c.119-1.9178 1.758-4.1154 4.674-4.1154 3.237 0 4.595 2.0378 4.675 4.1154h-9.349Zm9.909 5.4739c-.68 1.8779-2.118 3.1964-4.755 3.1964-2.797 0-5.154-1.9977-5.274-4.7546h14.943c0-.08.08-.919.08-1.7581 0-6.7125-3.876-10.8279-10.309-10.8279-5.354 0-10.268 4.3552-10.268 11.0277 0 7.0721 5.034 11.1875 10.788 11.1875 5.154 0 8.47-3.0366 9.509-6.6326l-4.714-1.4384Z" fill="#1F1F1F"/><path d="M13.0256 40.8182c-1.2386 0-2.2375-.9988-2.2375-2.2375 0-.4794.1598-.9589.4395-1.3185l.8391-1.1987L31.445 9.8928c.1598-.1998.3996-.3596.6792-.3596.4795 0 .8391.3596.8391.8391v30.406H13.0256v.0399Z" fill="#3ECF8E"/><path d="M52.9807 29.5107c1.2386 0 2.2375.9989 2.2375 2.2375 0 .4795-.1598.959-.4395 1.3186l-.8391 1.1986-19.3783 26.1708c-.1598.1998-.3996.3596-.6793.3596-.4794 0-.839-.3596-.839-.8391V29.5107h19.9377Z" fill="url(#a)"/><path d="M52.9807 29.5107c1.2386 0 2.2375.9989 2.2375 2.2375 0 .4795-.1598.959-.4395 1.3186l-.8391 1.1986-19.3783 26.1708c-.1598.1998-.3996.3596-.6793.3596-.4794 0-.839-.3596-.839-.8391V29.5107h19.9377Z" fill="url(#b)" fill-opacity=".2"/><defs><linearGradient id="a" x1="31.2802" y1="40.3555" x2="47.8286" y2="46.8129" gradientUnits="userSpaceOnUse"><stop stop-color="#249361"/><stop offset="1" stop-color="#3ECF8E"/></linearGradient><linearGradient id="b" x1="30.8762" y1="22.4965" x2="39.137" y2="36.9648" gradientUnits="userSpaceOnUse"><stop/><stop offset="1" stop-opacity="0"/></linearGradient></defs></svg>
