<svg width="80" height="64" viewBox="0 0 64 64" fill="none" xmlns="http://www.w3.org/2000/svg">
  <path d="M50.09 30.6716C50.09 29.8759 49.7739 29.1129 49.2113 28.5502C48.6487 27.9876 47.8857 27.6716 47.09 27.6716C46.2943 27.6716 45.5313 27.9876 44.9687 28.5502C44.4061 29.1129 44.09 29.8759 44.09 30.6716C44.1058 31.2419 44.2979 31.7933 44.6399 32.25C44.982 32.7066 45.4571 33.0461 46 33.2216V37.7916C44.6924 34.4431 42.2455 31.6633 39.09 29.9416C39.55 28.9416 40.02 28.0816 40.47 27.2916C42.1889 24.749 44.0835 22.3298 46.14 20.0516C47.27 18.7116 48.34 17.4516 49.21 16.3516C51.65 13.2916 54.33 8.77157 53.83 6.09157C53.7693 5.71593 53.6255 5.35857 53.4093 5.04547C53.1931 4.73236 52.9098 4.4714 52.58 4.28157C49.19 2.28157 44.58 8.78157 40.05 15.0516C37.05 19.1916 35.5 25.0516 34.79 28.3416C33.4005 28.0372 31.9824 27.883 30.56 27.8816C28.4919 27.8751 26.4371 28.2131 24.48 28.8816C24.3527 25.2116 24.4629 21.5373 24.81 17.8816C25.81 8.37156 25.37 2.79157 23.52 0.881566C23.2826 0.594458 22.9824 0.365773 22.6425 0.213185C22.3027 0.0605976 21.9323 -0.0118071 21.56 0.00156646C16.1 0.271566 16.72 16.5816 16.81 18.4416C17.03 22.9016 18.81 28.3216 19.89 31.3216C17.37 33.3152 15.5347 36.0454 14.64 39.1316H14.25C13.8391 39.1128 13.4285 39.1758 13.042 39.3168C12.6556 39.4578 12.301 39.6741 11.9987 39.9531C11.6964 40.2321 11.4525 40.5683 11.2811 40.9423C11.1097 41.3162 11.0141 41.7204 11 42.1316V47.3016C11.0154 47.7123 11.1119 48.1159 11.2837 48.4892C11.4556 48.8625 11.6996 49.1982 12.0016 49.477C12.3036 49.7557 12.6577 49.9721 13.0435 50.1136C13.4294 50.2551 13.8394 50.319 14.25 50.3016H14.91C15.6616 52.0632 16.7837 53.6423 18.2 54.9316L17.2 55.8116C16.9668 56.0128 16.8224 56.2978 16.7981 56.6049C16.7738 56.9119 16.8715 57.2161 17.07 57.4516C20.07 61.1016 24.98 63.1916 30.49 63.1916C36 63.1916 40.93 61.1016 43.91 57.4516C44.1085 57.2161 44.2062 56.9119 44.1819 56.6049C44.1576 56.2978 44.0132 56.0128 43.78 55.8116L42.78 54.9316C44.2005 53.6146 45.3223 52.0085 46.07 50.2216H46.82C47.2306 50.239 47.6406 50.1751 48.0265 50.0336C48.4123 49.8921 48.7664 49.6757 49.0684 49.397C49.3704 49.1182 49.6144 48.7825 49.7863 48.4092C49.9581 48.0359 50.0546 47.6323 50.07 47.2216V42.0916C50.0552 41.5053 49.8655 40.9369 49.5251 40.4593C49.1848 39.9817 48.7094 39.6168 48.16 39.4116V33.2216C48.7074 33.0508 49.1877 32.7132 49.5338 32.256C49.8798 31.7987 50.0743 31.2448 50.09 30.6716Z" fill="#CDCCCC"/>
  <path d="M25.6198 55.7417C26.5398 55.1317 24.1198 55.3617 23.9198 54.9517C22.9533 54.8661 21.9963 54.6955 21.0598 54.4417C19.3598 53.9917 15.2798 51.2517 14.8398 48.6217C14.3998 45.9917 14.8398 41.0017 16.6798 38.0017C17.8318 36.174 19.3177 34.5795 21.0598 33.3017C21.0598 33.3017 17.4898 24.8117 17.1898 18.4017C16.8898 11.9917 17.3898 0.581675 21.5698 0.381675C25.7498 0.181675 25.1398 10.8617 24.4298 17.8117C24.0082 22.4264 23.9414 27.0667 24.2298 31.6917C26.0103 31.1262 27.8621 30.8164 29.7298 30.7717C31.3755 30.7335 33.02 30.8879 34.6298 31.2317C34.6298 31.2317 35.9598 21.3917 40.3398 15.2317C44.7198 9.07167 49.3398 2.78168 52.3398 4.57168C55.3398 6.36168 51.5198 12.7517 48.8698 16.0817C46.2198 19.4117 41.6298 24.4117 40.0998 27.0817C39.0968 28.8583 38.2115 30.699 37.4498 32.5917C40.1784 33.992 42.4095 36.1987 43.8398 38.9117C45.9998 43.2217 46.1598 48.5217 44.9998 50.7717C44.4173 51.8107 43.6124 52.7081 42.6425 53.3996C41.6727 54.0911 40.5619 54.5597 39.3898 54.7717C38.0598 54.8317 32.4698 56.2217 32.4698 56.2217L25.6198 55.7417Z" fill="white"/>
  <path d="M35.4102 31.3215C35.4102 31.3215 38.7502 22.6115 41.7402 17.7215C44.7302 12.8315 48.7402 9.13152 50.0002 9.88152C51.2602 10.6315 47.4302 15.2015 44.0702 19.6915C41.3331 23.6562 38.8514 27.7913 36.6402 32.0715L35.4102 31.3215Z" fill="#DD00A1"/>
  <path d="M22.0001 32.8116L23.0001 32.0716C23.0001 32.0716 22.8601 23.3616 23.0001 18.0716C23.1401 12.7816 23.4101 6.17161 21.6401 6.23161C19.8701 6.29161 18.6401 11.4016 19.3301 18.6116C19.827 23.4105 20.72 28.16 22.0001 32.8116Z" fill="#DD00A1"/>
  <path d="M19.0201 51.4816C20.0915 51.4816 20.9601 50.613 20.9601 49.5416C20.9601 48.4701 20.0915 47.6016 19.0201 47.6016C17.9486 47.6016 17.0801 48.4701 17.0801 49.5416C17.0801 50.613 17.9486 51.4816 19.0201 51.4816Z" fill="#F9D8D2"/>
  <path d="M41.9498 51.4816C43.0212 51.4816 43.8898 50.613 43.8898 49.5416C43.8898 48.4701 43.0212 47.6016 41.9498 47.6016C40.8783 47.6016 40.0098 48.4701 40.0098 49.5416C40.0098 50.613 40.8783 51.4816 41.9498 51.4816Z" fill="#F9D8D2"/>
  <path d="M33.7 49.3816C33.6791 49.3693 33.6559 49.3613 33.6319 49.3582C33.6078 49.355 33.5834 49.3568 33.56 49.3633C33.5367 49.3698 33.5149 49.381 33.496 49.3962C33.4771 49.4114 33.4614 49.4302 33.45 49.4516C33.45 49.4516 32.87 50.4516 32.03 50.5116C31.7454 50.5032 31.4656 50.4368 31.2077 50.3164C30.9498 50.196 30.7191 50.0242 30.53 49.8116V48.3316C31.07 48.0316 31.94 47.1316 31.94 46.8216C31.8641 46.4911 31.6718 46.199 31.3981 45.9988C31.1245 45.7986 30.7879 45.7037 30.45 45.7316C29.45 45.7316 28.75 46.3816 28.75 46.9216C28.75 47.4616 29.85 48.1616 30.16 48.3616V49.8216C30.0021 50.022 29.804 50.1869 29.5783 50.3058C29.3526 50.4247 29.1045 50.4948 28.85 50.5116C28.06 50.5116 27.46 49.4316 27.45 49.4216C27.4266 49.3786 27.3875 49.3464 27.341 49.3315C27.2944 49.3166 27.2439 49.3202 27.2 49.3416C27.1563 49.3668 27.1238 49.4077 27.1089 49.4559C27.0941 49.5041 27.098 49.5561 27.12 49.6016C27.12 49.6016 27.83 50.8916 28.85 50.8916C29.1381 50.879 29.4206 50.8078 29.6802 50.6822C29.9398 50.5567 30.1711 50.3795 30.36 50.1616C30.775 50.5965 31.3398 50.8574 31.94 50.8916H32.06C32.4203 50.8206 32.7604 50.6709 33.056 50.453C33.3517 50.2352 33.5955 49.9547 33.77 49.6316C33.7823 49.6107 33.7902 49.5875 33.7934 49.5635C33.7965 49.5394 33.7947 49.515 33.7882 49.4917C33.7817 49.4683 33.7705 49.4465 33.7553 49.4276C33.7402 49.4087 33.7213 49.393 33.7 49.3816Z" fill="#10110E"/>
  <path d="M21.0598 33.3215C21.0598 33.3215 18.2898 26.3215 17.7598 22.6615C17.2298 19.0015 16.7598 12.8915 17.4598 8.82147C17.7606 6.94648 18.1679 5.09014 18.6798 3.26147C18.6798 3.26147 17.3898 12.7515 17.8698 16.9015C18.3498 21.0515 21.0598 33.3215 21.0598 33.3215Z" fill="#E5E5E5"/>
  <path d="M34.6299 31.2317C34.6299 31.2317 36.6299 20.6417 39.5399 16.4817C42.4499 12.3217 46.0599 7.27168 47.8899 6.00168L49.7199 4.72168C49.7199 4.72168 42.3799 12.4217 39.5399 18.7217C36.6999 25.0217 34.6299 31.2317 34.6299 31.2317Z" fill="#E5E5E5"/>
  <path d="M23.0002 43.2315C22.6992 43.2295 22.4043 43.317 22.153 43.4828C21.9018 43.6486 21.7054 43.8853 21.5888 44.1628C21.4722 44.4404 21.4407 44.7463 21.4982 45.0418C21.5557 45.3373 21.6997 45.6091 21.9119 45.8227C22.124 46.0363 22.3949 46.182 22.69 46.2415C22.9851 46.301 23.2912 46.2715 23.5696 46.1567C23.8479 46.042 24.0859 45.8472 24.2533 45.597C24.4208 45.3468 24.5102 45.0525 24.5102 44.7515C24.5102 44.3501 24.3515 43.965 24.0686 43.6802C23.7857 43.3954 23.4016 43.2341 23.0002 43.2315ZM23.4302 44.6415C23.3215 44.6415 23.2172 44.5983 23.1403 44.5214C23.0634 44.4445 23.0202 44.3402 23.0202 44.2315C23.0202 44.1227 23.0634 44.0185 23.1403 43.9416C23.2172 43.8647 23.3215 43.8215 23.4302 43.8215C23.539 43.8215 23.6432 43.8647 23.7201 43.9416C23.797 44.0185 23.8402 44.1227 23.8402 44.2315C23.8403 44.287 23.8291 44.342 23.8072 44.3931C23.7854 44.4442 23.7534 44.4904 23.7131 44.5287C23.6729 44.567 23.6253 44.5968 23.5733 44.6162C23.5212 44.6356 23.4657 44.6442 23.4102 44.6415H23.4302Z" fill="#10110E"/>
  <path d="M37.9199 43.2314C37.6193 43.2314 37.3254 43.3206 37.0754 43.4876C36.8255 43.6546 36.6307 43.892 36.5156 44.1698C36.4006 44.4475 36.3705 44.7531 36.4291 45.048C36.4878 45.3428 36.6325 45.6137 36.8451 45.8262C37.0577 46.0388 37.3285 46.1836 37.6234 46.2422C37.9182 46.3009 38.2238 46.2708 38.5016 46.1557C38.7793 46.0407 39.0167 45.8459 39.1837 45.5959C39.3508 45.346 39.4399 45.0521 39.4399 44.7514C39.4399 44.3483 39.2798 43.9617 38.9947 43.6766C38.7096 43.3916 38.323 43.2314 37.9199 43.2314ZM38.3499 44.6414C38.242 44.6389 38.1391 44.5949 38.0628 44.5185C37.9865 44.4422 37.9424 44.3394 37.9399 44.2314C37.9553 44.1324 38.0056 44.0422 38.0817 43.977C38.1578 43.9119 38.2547 43.8761 38.3549 43.8761C38.4551 43.8761 38.552 43.9119 38.6281 43.977C38.7042 44.0422 38.7545 44.1324 38.7699 44.2314C38.7673 44.3411 38.7219 44.4454 38.6434 44.522C38.5649 44.5986 38.4596 44.6415 38.3499 44.6414Z" fill="#10110E"/>
  <path opacity="0.2" d="M30.7299 55.4816C38.5171 55.4816 44.8299 50.9328 44.8299 45.3216C44.8299 39.7104 38.5171 35.1616 30.7299 35.1616C22.9427 35.1616 16.6299 39.7104 16.6299 45.3216C16.6299 50.9328 22.9427 55.4816 30.7299 55.4816Z" fill="#8ACCCE"/>
  <path d="M47.8001 39.6715V33.0015C48.3263 32.8855 48.7996 32.5992 49.1467 32.187C49.4938 31.7749 49.6954 31.2598 49.7201 30.7215C49.6506 30.0711 49.3431 29.4694 48.8566 29.0322C48.3702 28.5949 47.7392 28.353 47.0851 28.353C46.431 28.353 45.8001 28.5949 45.3136 29.0322C44.8272 29.4694 44.5196 30.0711 44.4501 30.7215C44.4727 31.2589 44.6721 31.7738 45.0176 32.1861C45.363 32.5985 45.835 32.8851 46.3601 33.0015V39.5015H46.1701C44.1701 32.5615 38.2601 28.2515 30.5501 28.2515C22.8401 28.2515 16.8901 32.5215 14.9201 39.5015H14.2501C13.5255 39.466 12.8162 39.7183 12.2768 40.2034C11.7373 40.6885 11.4115 41.3672 11.3701 42.0915V47.2615C11.414 47.984 11.741 48.6601 12.2801 49.1431C12.8193 49.6261 13.5271 49.877 14.2501 49.8415H15.1601C15.9334 51.8029 17.1683 53.549 18.7601 54.9315L17.4601 56.0915C17.3802 56.1587 17.3143 56.2412 17.2665 56.3341C17.2186 56.427 17.1896 56.5285 17.1813 56.6327C17.1729 56.7368 17.1853 56.8416 17.2177 56.941C17.2501 57.0403 17.3019 57.1323 17.3701 57.2115C20.2901 60.7415 25.0801 62.8115 30.5001 62.8115C35.9201 62.8115 40.7101 60.8115 43.6301 57.2115C43.6983 57.1323 43.7501 57.0403 43.7825 56.941C43.8149 56.8416 43.8273 56.7368 43.819 56.6327C43.8106 56.5285 43.7816 56.427 43.7338 56.3341C43.6859 56.2412 43.6201 56.1587 43.5401 56.0915L42.2401 54.9315C43.8253 53.543 45.059 51.7987 45.8401 49.8415H46.8401C47.5631 49.877 48.271 49.6261 48.8101 49.1431C49.3493 48.6601 49.6762 47.984 49.7201 47.2615V42.0915C49.6978 41.5367 49.4998 41.0033 49.1547 40.5684C48.8096 40.1334 48.3353 39.8194 47.8001 39.6715ZM30.5501 35.6215C37.6901 35.6215 43.4901 40.3215 43.4901 46.0915C43.4901 52.3415 36.9701 55.0915 30.5501 55.0915C24.1301 55.0915 17.6101 52.2915 17.6101 46.0915C17.6101 40.3215 23.4101 35.6215 30.5501 35.6215Z" fill="white"/>
  <path d="M48.28 45.5316H46.36C46.36 45.2316 46.36 44.9316 46.36 44.5916C46.3589 43.3155 46.2316 42.0427 45.98 40.7916H46.79C46.9706 40.7795 47.1517 40.8037 47.3227 40.863C47.4937 40.9222 47.6511 41.0152 47.7854 41.1365C47.9198 41.2578 48.0284 41.4048 48.1047 41.5689C48.1811 41.733 48.2237 41.9108 48.23 42.0916L48.28 45.5316Z" fill="#515151"/>
  <path d="M46.8398 48.5516H45.8398C46.0301 47.8451 46.1738 47.1269 46.2698 46.4016H48.2698V47.2616C48.2636 47.4412 48.2212 47.6176 48.1454 47.7805C48.0695 47.9434 47.9616 48.0893 47.8282 48.2097C47.6948 48.33 47.5386 48.4223 47.3688 48.481C47.199 48.5398 47.0191 48.5638 46.8398 48.5516Z" fill="#515151"/>
  <path d="M30.5498 61.4815C25.7498 61.4815 21.4898 59.7515 18.7998 56.6915L20.1498 55.4915C23.2227 57.5432 26.8563 58.5913 30.5498 58.4915C34.2431 58.5893 37.8761 57.5413 40.9498 55.4915L42.2898 56.6915C39.6098 59.7515 35.3398 61.4815 30.5498 61.4815Z" fill="#515151"/>
  <path d="M14.2501 40.7916H15.1101C14.8604 42.043 14.7332 43.3156 14.7301 44.5916C14.7062 44.9045 14.7062 45.2187 14.7301 45.5316H12.8601V42.0916C12.8566 41.9122 12.8909 41.734 12.9608 41.5687C13.0306 41.4034 13.1345 41.2546 13.2655 41.132C13.3966 41.0094 13.552 40.9158 13.7216 40.8571C13.8912 40.7985 14.0713 40.7762 14.2501 40.7916Z" fill="#515151"/>
  <path d="M30.55 34.7615C28.9256 34.7663 27.3099 34.9986 25.75 35.4515V30.2415C27.3112 29.7987 28.9273 29.5799 30.55 29.5915C32.1694 29.5805 33.7821 29.7994 35.34 30.2415V35.4915C33.7896 35.0064 32.1745 34.7603 30.55 34.7615Z" fill="black"/>
  <path d="M24.7999 30.5415V35.8015C19.9999 37.5615 16.6499 41.5315 16.6499 46.0915C16.6499 52.0015 22.2599 56.0015 30.5499 56.0015C38.8399 56.0015 44.4499 52.0015 44.4499 46.0915C44.4499 41.5315 41.0899 37.5615 36.2999 35.8015V30.5415C41.9099 32.5415 45.4099 37.7315 45.4099 44.6315C45.4099 52.3915 39.4599 57.6315 30.5499 57.6315C21.6399 57.6315 15.6899 52.4215 15.6899 44.6315C15.6899 37.7315 19.1899 32.5615 24.7999 30.5415Z" fill="#515151"/>
  <path d="M12.8098 46.4016H14.8098C14.901 47.1277 15.0447 47.8463 15.2398 48.5516H14.2398C14.06 48.5638 13.8797 48.5398 13.7093 48.4812C13.5389 48.4226 13.382 48.3304 13.2478 48.2102C13.1136 48.09 13.0048 47.9441 12.9279 47.7812C12.851 47.6183 12.8074 47.4416 12.7998 47.2616L12.8098 46.4016Z" fill="#515151"/>
  <path d="M47.0799 31.7516C47.7426 31.7516 48.2799 31.268 48.2799 30.6716C48.2799 30.0751 47.7426 29.5916 47.0799 29.5916C46.4171 29.5916 45.8799 30.0751 45.8799 30.6716C45.8799 31.268 46.4171 31.7516 47.0799 31.7516Z" fill="#515151"/>
</svg>
