<svg width="1373" height="488" viewBox="0 0 1373 488" fill="none" xmlns="http://www.w3.org/2000/svg">
<mask id="mask0_415_730" style="mask-type:alpha" maskUnits="userSpaceOnUse" x="0" y="0" width="1373" height="488">
<rect width="1373" height="488" fill="url(#paint0_radial_415_730)" fill-opacity="0.7"/>
</mask>
<g mask="url(#mask0_415_730)">
<line x1="9.93506" y1="34.3555" x2="1373.04" y2="34.3555" stroke="#9D6CFF"/>
<line x1="9.93506" y1="69.2148" x2="1373.04" y2="69.2148" stroke="#9D6CFF"/>
<line x1="9.93506" y1="104.07" x2="1373.04" y2="104.07" stroke="#9D6CFF"/>
<line x1="9.93506" y1="138.93" x2="1373.04" y2="138.93" stroke="#9D6CFF"/>
<line x1="9.93506" y1="173.785" x2="1373.04" y2="173.785" stroke="#9D6CFF"/>
<line x1="9.93506" y1="208.645" x2="1373.04" y2="208.645" stroke="#9D6CFF"/>
<line x1="9.93506" y1="243.5" x2="1373.04" y2="243.5" stroke="#9D6CFF"/>
<line x1="9.93506" y1="278.355" x2="1373.04" y2="278.355" stroke="#9D6CFF"/>
<line x1="9.93506" y1="313.215" x2="1373.04" y2="313.215" stroke="#9D6CFF"/>
<line x1="9.93506" y1="348.07" x2="1373.04" y2="348.07" stroke="#9D6CFF"/>
<line x1="9.93506" y1="382.93" x2="1373.04" y2="382.93" stroke="#9D6CFF"/>
<line x1="9.93506" y1="417.785" x2="1373.04" y2="417.785" stroke="#9D6CFF"/>
<line x1="9.93506" y1="452.645" x2="1373.04" y2="452.645" stroke="#9D6CFF"/>
<line x1="9.93506" y1="487.5" x2="1373.04" y2="487.5" stroke="#9D6CFF"/>
<line x1="1324.84" y1="0.0078125" x2="1324.84" y2="488.008" stroke="#9D6CFF"/>
<line x1="1276.16" y1="0.0078125" x2="1276.16" y2="488.008" stroke="#9D6CFF"/>
<line x1="1227.48" y1="0.0078125" x2="1227.48" y2="488.008" stroke="#9D6CFF"/>
<line x1="1178.8" y1="0.0078125" x2="1178.8" y2="488.008" stroke="#9D6CFF"/>
<line x1="1130.12" y1="0.0078125" x2="1130.12" y2="488.008" stroke="#9D6CFF"/>
<line x1="1081.44" y1="0.0078125" x2="1081.44" y2="488.008" stroke="#9D6CFF"/>
<line x1="1032.75" y1="0.0078125" x2="1032.75" y2="488.008" stroke="#9D6CFF"/>
<line x1="984.074" y1="0.0078125" x2="984.074" y2="488.008" stroke="#9D6CFF"/>
<line x1="935.394" y1="0.0078125" x2="935.394" y2="488.008" stroke="#9D6CFF"/>
<line x1="886.713" y1="0.0078125" x2="886.713" y2="488.008" stroke="#9D6CFF"/>
<line x1="838.031" y1="0.0078125" x2="838.031" y2="488.008" stroke="#9D6CFF"/>
<line x1="789.351" y1="0.0078125" x2="789.351" y2="488.008" stroke="#9D6CFF"/>
<line x1="740.67" y1="0.0078125" x2="740.67" y2="488.008" stroke="#9D6CFF"/>
<line x1="691.988" y1="0.0078125" x2="691.988" y2="488.008" stroke="#9D6CFF"/>
<line x1="643.308" y1="0.0078125" x2="643.308" y2="488.008" stroke="#9D6CFF"/>
<line x1="594.627" y1="0.0078125" x2="594.627" y2="488.008" stroke="#9D6CFF"/>
<line x1="545.946" y1="0.0078125" x2="545.946" y2="488.008" stroke="#9D6CFF"/>
<line x1="497.266" y1="0.0078125" x2="497.266" y2="488.008" stroke="#9D6CFF"/>
<line x1="448.584" y1="0.0078125" x2="448.584" y2="488.008" stroke="#9D6CFF"/>
<line x1="399.903" y1="0.0078125" x2="399.903" y2="488.008" stroke="#9D6CFF"/>
<line x1="351.223" y1="0.0078125" x2="351.223" y2="488.008" stroke="#9D6CFF"/>
<line x1="302.542" y1="0.0078125" x2="302.542" y2="488.008" stroke="#9D6CFF"/>
<line x1="253.86" y1="0.0078125" x2="253.86" y2="488.008" stroke="#9D6CFF"/>
<line x1="205.18" y1="0.0078125" x2="205.18" y2="488.008" stroke="#9D6CFF"/>
<line x1="156.499" y1="0.0078125" x2="156.499" y2="488.008" stroke="#9D6CFF"/>
<line x1="107.818" y1="0.0078125" x2="107.818" y2="488.008" stroke="#9D6CFF"/>
<line x1="59.1367" y1="0.0078125" x2="59.1367" y2="488.008" stroke="#9D6CFF"/>
<line x1="10.4561" y1="0.0078125" x2="10.4561" y2="488.008" stroke="#9D6CFF"/>
</g>
<defs>
<radialGradient id="paint0_radial_415_730" cx="0" cy="0" r="1" gradientUnits="userSpaceOnUse" gradientTransform="translate(686.5 225) rotate(90) scale(263 739.957)">
<stop stop-color="#9D6CFF"/>
<stop offset="1" stop-color="#C4C4C4" stop-opacity="0"/>
</radialGradient>
</defs>
</svg>
