<svg width="34" height="38" viewBox="0 0 34 38" fill="none" xmlns="http://www.w3.org/2000/svg">
<path d="M33.25 26.7188V1.78125C33.25 0.794141 32.4559 0 31.4688 0H7.125C3.19141 0 0 3.19141 0 7.125V30.875C0 34.8086 3.19141 38 7.125 38H31.4688C32.4559 38 33.25 37.2059 33.25 36.2188V35.0312C33.25 34.4746 32.9902 33.9699 32.5895 33.6434C32.2777 32.5004 32.2777 29.2422 32.5895 28.0992C32.9902 27.7801 33.25 27.2754 33.25 26.7188ZM9.5 9.94531C9.5 9.70039 9.70039 9.5 9.94531 9.5H25.6797C25.9246 9.5 26.125 9.70039 26.125 9.94531V11.4297C26.125 11.6746 25.9246 11.875 25.6797 11.875H9.94531C9.70039 11.875 9.5 11.6746 9.5 11.4297V9.94531ZM9.5 14.6953C9.5 14.4504 9.70039 14.25 9.94531 14.25H25.6797C25.9246 14.25 26.125 14.4504 26.125 14.6953V16.1797C26.125 16.4246 25.9246 16.625 25.6797 16.625H9.94531C9.70039 16.625 9.5 16.4246 9.5 16.1797V14.6953ZM28.307 33.25H7.125C5.81133 33.25 4.75 32.1887 4.75 30.875C4.75 29.5687 5.81875 28.5 7.125 28.5H28.307C28.166 29.7691 28.166 31.9809 28.307 33.25Z" fill="#9D6CFF"/>
</svg>
