<svg width="51" height="10.275380000000006" viewBox="0 32.0 51 10.275380000000006" fill="none" xmlns="http://www.w3.org/2000/svg">
<path d="M22.5581 21.0852C24.4322 20.3444 26.4126 20.341 28.2053 21.0755L45.864 28.3103C47.4795 28.9721 47.3084 31.8168 45.6144 32.4603L26.8187 39.6005C25.9085 39.9462 24.9512 39.9455 24.0804 39.5985L5.11742 32.0407C3.50019 31.3962 3.64754 28.5595 5.33285 27.8934L22.5581 21.0852Z" fill="#9D6CFF"/>
<path d="M11 42L21.9125 46.7326C24.541 47.8725 27.5321 47.8303 30.1273 46.6167L40 42V53.6841C40 54.9617 39.1909 56.0991 37.984 56.5181L25.751 60.7654C25.3141 60.9171 24.8381 60.9127 24.4041 60.7529L12.309 56.3001C11.5225 56.0106 11 55.2613 11 54.4233V42Z" fill="#9D6CFF"/>
<rect x="44" y="32" width="2" height="9" fill="#9D6CFF"/>
<rect x="43" y="38.0078" width="4.05997" height="4.26758" rx="2" fill="#9D6CFF"/>
<path d="M43.7285 41.9104C43.8896 41.3702 44.3864 41 44.9501 41V41C45.5599 41 46.0843 41.4319 46.2012 42.0305L46.8439 45.3229C47.085 46.558 46.1393 47.7061 44.881 47.7061H44.6546V47.7061C43.3306 47.7061 42.3803 46.431 42.7587 45.1623L43.7285 41.9104Z" fill="#9D6CFF"/>
</svg>
