<svg width="41" height="39" viewBox="0 0 41 39" fill="none" xmlns="http://www.w3.org/2000/svg">
<path d="M3.33786e-06 8.20002V9.56669C3.33786e-06 9.74792 0.0719967 9.92173 0.200146 10.0499C0.328296 10.178 0.502105 10.25 0.683337 10.25H2.73334V11.275C2.73334 11.8411 3.19228 12.3 3.75834 12.3H37.2417C37.8077 12.3 38.2667 11.8411 38.2667 11.275V10.25H40.3167C40.4979 10.25 40.6717 10.178 40.7999 10.0499C40.928 9.92173 41 9.74792 41 9.56669V8.20002C41 8.06483 40.9599 7.93268 40.8848 7.82029C40.8096 7.7079 40.7029 7.62032 40.578 7.56862L20.7613 0.0519565C20.594 -0.0173188 20.406 -0.0173188 20.2387 0.0519565L0.422048 7.56862C0.297133 7.62032 0.190356 7.7079 0.11523 7.82029C0.0401044 7.93268 4.31515e-06 8.06483 3.33786e-06 8.20002ZM2.05 34.1667H38.95C40.0822 34.1667 41 35.0845 41 36.2167V37.5834C41 37.7646 40.928 37.9384 40.7999 38.0665C40.6717 38.1947 40.4979 38.2667 40.3167 38.2667H0.683337C0.502105 38.2667 0.328296 38.1947 0.200146 38.0665C0.0719967 37.9384 3.33786e-06 37.7646 3.33786e-06 37.5834V36.2167C3.33786e-06 35.0845 0.917805 34.1667 2.05 34.1667ZM34.1667 13.6667V30.0667H37.2417C37.8077 30.0667 38.2667 30.5256 38.2667 31.0917V32.8H2.73334V31.0917C2.73334 30.5256 3.19228 30.0667 3.75834 30.0667H6.83334V13.6667H12.3V30.0667H17.7667V13.6667H23.2333V30.0667H28.7V13.6667H34.1667Z" fill="#9D6CFF"/>
</svg>
