<svg width="30" height="26" viewBox="0 0 30 26" fill="none" xmlns="http://www.w3.org/2000/svg">
<path d="M3.97756 1.71662C12.2436 0.866126 17.792 0.992693 25.9788 1.75007C27.1233 1.85594 28 2.82166 28 3.97821V6.85903C28 8.10167 26.9926 9.10903 25.75 9.10903H12.8529C11.8232 9.10903 10.8388 9.53246 10.1306 10.28L7.15625 13.4196V10.359C7.15625 9.66868 6.59661 9.10903 5.90625 9.10903H4.25C3.00736 9.10903 2 8.10167 2 6.85903V3.92996C2 2.78755 2.85495 1.83213 3.97756 1.71662Z" stroke="#9D6CFF" stroke-width="1.5"/>
<path d="M4.40104 11.5828H4.25C2.59315 11.5828 1.25 12.9259 1.25 14.5828V17.1765C1.25 18.8334 2.59314 20.1765 4.25 20.1765H17.1471C17.9709 20.1765 18.7584 20.5152 19.325 21.1133L22.7308 24.7083C23.0416 25.0364 23.5937 24.8164 23.5937 24.3644V20.6765C23.5937 20.4004 23.8176 20.1765 24.0937 20.1765H25.75C27.4069 20.1765 28.75 18.8334 28.75 17.1765V14.4717C28.75 12.8588 27.4766 11.5354 25.8645 11.4867C21.4292 11.3526 13.3984 11.1693 12.9593 11.5828" stroke="#9D6CFF" stroke-width="1.5" stroke-linecap="round"/>
</svg>
