<svg width="167" height="193" viewBox="0 0 167 193" fill="none" xmlns="http://www.w3.org/2000/svg">
<path d="M8.67268 101.552C8.67268 107.448 8.19961 109.369 6.98313 110.784C5.62925 111.999 3.87159 112.672 2.04968 112.671L2.52276 116.04C5.34733 116.078 8.08806 115.083 10.2271 113.243C11.378 111.844 12.2344 110.228 12.7453 108.491C13.2562 106.755 13.411 104.933 13.2007 103.136V80.832H8.67268V101.418V101.552Z" fill="white"/>
<path d="M42.4411 98.8961C42.4411 101.423 42.4411 103.68 42.6438 105.634H38.6227L38.3524 101.625C37.5113 103.044 36.3085 104.215 34.8663 105.02C33.424 105.825 31.7937 106.234 30.1412 106.207C26.2215 106.207 21.5583 104.085 21.5583 95.4259V81.0396H26.0863V94.5162C26.0863 99.1994 27.5393 102.333 31.628 102.333C32.4692 102.342 33.3037 102.183 34.0827 101.866C34.8616 101.549 35.5692 101.081 36.1641 100.488C36.7589 99.8946 37.229 99.189 37.5468 98.4124C37.8645 97.6358 38.0235 96.8037 38.0145 95.9649V80.8711H42.5424V98.7614L42.4411 98.8961Z" fill="white"/>
<path d="M51.0239 89.0535C51.0239 85.9202 51.0239 83.3596 50.8212 81.0349H54.8761L55.0788 85.2463C55.9822 83.7248 57.2828 82.4762 58.8419 81.6337C60.401 80.7911 62.1602 80.3862 63.932 80.4621C69.9468 80.4621 74.4748 85.4822 74.4748 92.9617C74.4748 101.789 69.0344 106.169 63.1548 106.169C61.6499 106.236 60.1532 105.914 58.8094 105.236C57.4656 104.557 56.3203 103.544 55.4843 102.294V115.771H51.0239V89.1546V89.0535ZM55.4843 95.6234C55.4966 96.2347 55.5644 96.8436 55.6871 97.4427C56.0704 98.9387 56.9432 100.264 58.1672 101.21C59.3912 102.156 60.8966 102.668 62.4452 102.665C67.2097 102.665 70.0144 98.7904 70.0144 93.1639C70.0144 88.2449 67.3787 84.0334 62.6142 84.0334C60.7287 84.1874 58.9642 85.0218 57.6517 86.3801C56.3391 87.7385 55.5685 89.5275 55.4843 91.4119V95.6234Z" fill="white"/>
<path d="M82.5424 81.0127L87.9828 95.5338C88.5572 97.151 89.1654 99.1051 89.5709 100.554C90.044 99.0714 90.5508 97.1847 91.1591 95.4327L96.0925 81.0127H100.857L94.0989 98.5323C90.7198 106.955 88.6586 111.301 85.5498 113.929C83.984 115.355 82.075 116.354 80.0081 116.827L78.893 113.053C80.3382 112.58 81.6799 111.837 82.8466 110.863C84.495 109.524 85.8033 107.816 86.6649 105.877C86.8493 105.541 86.975 105.177 87.0366 104.799C86.9982 104.392 86.8955 103.994 86.7325 103.62L77.5414 80.9453H82.4748L82.5424 81.0127Z" fill="white"/>
<path d="M112.877 73.9453V81.0205H119.365V84.3897H112.877V97.6642C112.877 100.696 113.756 102.448 116.257 102.448C117.145 102.463 118.031 102.361 118.892 102.145L119.095 105.514C117.803 105.961 116.44 106.166 115.074 106.121C114.169 106.177 113.263 106.038 112.417 105.712C111.571 105.387 110.806 104.882 110.174 104.234C108.798 102.399 108.17 100.111 108.417 97.8327V84.356H104.565V80.9869H108.485V74.9898L112.877 73.9453Z" fill="white"/>
<path d="M127.706 94.1104C127.614 95.2531 127.773 96.4019 128.17 97.4776C128.567 98.5533 129.194 99.5301 130.007 100.341C130.82 101.151 131.799 101.776 132.878 102.172C133.957 102.568 135.109 102.726 136.255 102.634C138.573 102.686 140.876 102.25 143.013 101.354L143.791 104.723C141.168 105.801 138.347 106.317 135.512 106.239C133.859 106.352 132.201 106.107 130.652 105.521C129.102 104.935 127.699 104.022 126.537 102.844C125.375 101.666 124.482 100.252 123.92 98.698C123.358 97.1439 123.139 95.4871 123.28 93.8409C123.28 86.4288 127.706 80.5664 134.937 80.5664C143.047 80.5664 145.075 87.6416 145.075 92.1563C145.118 92.852 145.118 93.5496 145.075 94.2452H127.605L127.706 94.1104ZM140.952 90.7413C141.083 89.8405 141.018 88.9224 140.762 88.0487C140.507 87.175 140.066 86.3661 139.471 85.6764C138.875 84.9868 138.138 84.4325 137.31 84.0508C136.481 83.6691 135.58 83.469 134.667 83.4639C132.81 83.5979 131.071 84.4184 129.79 85.7646C128.508 87.1108 127.777 88.8857 127.74 90.7413H140.952Z" fill="white"/>
<path d="M151.945 88.6752C151.945 85.7777 151.945 83.2845 151.742 80.9935H155.797V85.8114H156C156.425 84.3244 157.305 83.0064 158.516 82.0404C159.727 81.0744 161.21 80.5083 162.758 80.4207C163.184 80.365 163.616 80.365 164.042 80.4207V84.6322C163.526 84.5726 163.004 84.5726 162.488 84.6322C160.954 84.6914 159.494 85.3054 158.381 86.3594C157.268 87.4135 156.578 88.8354 156.439 90.3598C156.313 91.0492 156.245 91.7479 156.236 92.4486V105.555H151.776V88.7089L151.945 88.6752Z" fill="white"/>
<path d="M149.96 13.3404C150.099 15.6038 149.559 17.8572 148.409 19.8134C147.259 21.7697 145.551 23.3403 143.502 24.3252C141.453 25.3101 139.157 25.6647 136.906 25.3438C134.654 25.0228 132.549 24.0409 130.86 22.5232C129.17 21.0054 127.972 19.0205 127.417 16.8212C126.863 14.622 126.978 12.3079 127.747 10.174C128.516 8.03998 129.905 6.1826 131.737 4.83848C133.569 3.49435 135.76 2.7243 138.032 2.62642C139.522 2.54469 141.013 2.7574 142.42 3.25231C143.827 3.74723 145.122 4.5146 146.231 5.51028C147.339 6.50597 148.24 7.71033 148.88 9.0541C149.52 10.3979 149.887 11.8546 149.96 13.3404Z" fill="white"/>
<path d="M83.1438 145.289C52.7323 145.289 26.0037 134.407 12.1832 118.336C17.5456 132.794 27.2214 145.266 39.9082 154.075C52.5949 162.884 67.6842 167.606 83.1438 167.606C98.6038 167.606 113.693 162.884 126.38 154.075C139.066 145.266 148.742 132.794 154.105 118.336C140.318 134.407 113.691 145.289 83.1438 145.289Z" fill="#F37726"/>
<path d="M83.1438 40.7819C113.556 40.7819 140.284 51.6643 154.105 67.7351C148.742 53.2776 139.066 40.8049 126.38 31.996C113.693 23.1871 98.6038 18.4648 83.1438 18.4648C67.6842 18.4648 52.5949 23.1871 39.9082 31.996C27.2214 40.8049 17.5456 53.2776 12.1832 67.7351C26.0037 51.6306 52.5972 40.7819 83.1438 40.7819Z" fill="#F37726"/>
<path d="M41.2785 176.563C41.4568 179.414 40.78 182.254 39.3341 184.72C37.8882 187.186 35.7387 189.167 33.1596 190.41C30.5805 191.654 27.6884 192.104 24.8519 191.703C22.0154 191.302 19.3628 190.068 17.2322 188.158C15.1015 186.249 13.5892 183.75 12.888 180.98C12.1868 178.211 12.3283 175.296 13.2946 172.607C14.261 169.918 16.0083 167.576 18.314 165.881C20.6197 164.185 23.3794 163.213 26.2416 163.087C28.1165 162.987 29.9928 163.256 31.7633 163.879C33.5338 164.503 35.1639 165.467 36.5603 166.719C37.9566 167.97 39.0921 169.484 39.9016 171.173C40.7112 172.862 41.1791 174.694 41.2785 176.563Z" fill="white"/>
<path d="M15.6395 37.12C14.0008 37.1651 12.3853 36.7261 10.9962 35.8583C9.60706 34.9904 8.50631 33.7323 7.83237 32.2424C7.15843 30.7524 6.94139 29.097 7.20854 27.4843C7.4757 25.8717 8.21512 24.3738 9.33382 23.179C10.4525 21.9843 11.9006 21.146 13.4958 20.7696C15.0911 20.3932 16.7623 20.4956 18.2994 21.0637C19.8365 21.6319 21.1708 22.6405 22.1345 23.9627C23.0982 25.285 23.6482 26.8618 23.7155 28.495C23.7795 30.7032 22.9674 32.8476 21.4553 34.4624C19.9433 36.0772 17.8534 37.0322 15.6395 37.12Z" fill="white"/>
</svg>
