<svg width="40" height="41" viewBox="0 0 40 41" fill="none" xmlns="http://www.w3.org/2000/svg">
<path d="M39.0353 32.3115L28.5709 17.2168V5.125H29.2852C30.4727 5.125 31.428 4.26816 31.428 3.20312V1.92188C31.428 0.856836 30.4727 0 29.2852 0H10.7136C9.52604 0 8.57067 0.856836 8.57067 1.92188V3.20312C8.57067 4.26816 9.52604 5.125 10.7136 5.125H11.4278V17.2168L0.963458 32.3115C-1.65264 36.0832 1.36525 41 6.32958 41H33.6691C38.6424 41 41.6514 36.0752 39.0353 32.3115ZM12.4916 29.7135C12.0768 29.8252 11.7235 29.3964 11.9125 29.0107L16.6154 19.4109C16.9458 18.9945 17.1333 18.482 17.1333 17.9375V5.125H22.8476V17.9375C22.8476 18.49 23.044 18.9945 23.3655 19.4109L27.2653 25.042C27.4621 25.3262 27.3181 25.7195 26.9843 25.8095L12.4916 29.7135Z" fill="#9D6CFF"/>
</svg>
