<svg width="249" height="179" viewBox="0 0 249 179" fill="none" xmlns="http://www.w3.org/2000/svg">
<path d="M41.4182 151.083C37.5688 151.083 33.6558 149.467 31.1994 146.301V163.406H23.5006V121.184H30.4654L30.7388 125.814C33.1278 122.245 37.3741 120.359 41.4219 120.363C49.1806 120.363 54.9022 126.962 54.9022 135.719C54.9022 144.477 49.1769 151.087 41.4182 151.083ZM39.0329 126.167C34.5395 126.167 30.8698 129.737 30.8698 135.731C30.8698 141.725 34.517 145.294 39.0292 145.294C43.5413 145.294 47.181 141.725 47.181 135.731C47.181 129.737 43.5413 126.167 39.0329 126.167Z" fill="white"/>
<path d="M83.9186 150.281L83.6527 145.637C81.2637 149.206 77.0174 151.091 72.9734 151.091C65.2109 151.091 59.493 144.489 59.493 135.735C59.493 126.981 65.1997 120.379 72.9734 120.383C77.0174 120.383 81.2637 122.283 83.6527 125.837L83.9186 121.192H90.8834V150.285L83.9186 150.281ZM75.3624 126.172C70.8689 126.172 67.203 129.741 67.203 135.735C67.203 141.729 70.8502 145.298 75.3624 145.298C79.8745 145.298 83.5217 141.729 83.5217 135.739C83.5217 129.748 79.8745 126.195 75.3624 126.172V126.172Z" fill="white"/>
<path d="M117.81 150.289V134.177C117.81 128.521 115.886 126.636 112.37 126.636C108.722 126.636 104.742 129.999 104.738 134.04V150.27H97.047V121.193H104.098L104.427 126.582C106.352 122.876 110.666 120.387 115.043 120.387C122.671 120.387 125.528 125.777 125.528 132.983V150.289H117.81Z" fill="white"/>
<path d="M153.72 150.291L153.455 145.643C151.069 149.212 146.823 151.097 142.775 151.097C135.013 151.097 129.295 144.495 129.295 135.741C129.295 126.987 135.002 120.389 142.775 120.389C146.621 120.389 150.538 122.008 152.99 125.174V109.887H160.685V150.291H153.72ZM145.168 126.193C140.656 126.193 137.005 129.762 137.005 135.756C137.005 141.75 140.652 145.316 145.164 145.32C149.676 145.323 153.324 141.75 153.324 135.756C153.324 129.762 149.676 126.193 145.168 126.193Z" fill="white"/>
<path d="M189.604 150.293L189.338 145.648C186.949 149.217 182.703 151.103 178.659 151.099C170.897 151.099 165.179 144.5 165.179 135.747C165.179 126.993 170.885 120.391 178.659 120.395C182.703 120.395 186.949 122.295 189.338 125.849L189.604 121.204H196.588V150.293H189.604ZM181.048 126.191C176.536 126.191 172.889 129.76 172.889 135.754C172.889 141.748 176.536 145.318 181.048 145.318C185.56 145.318 189.207 141.748 189.207 135.754C189.207 129.76 185.56 126.191 181.048 126.191Z" fill="white"/>
<path d="M213.622 151.241C209.574 151.208 205.609 150.069 202.145 147.942L203.403 142.537C205.725 143.951 209.241 145.772 213.487 145.772C216.539 145.772 218.662 144.829 218.662 142.404C218.662 140.317 216.475 139.576 212.558 138.633C205.53 137.083 203.006 133.312 203.01 129.203C203.01 124.642 206.526 120.316 214.288 120.316C218.999 120.316 223.11 122.407 224.024 122.943L222.777 128.093C220.271 126.56 217.412 125.724 214.487 125.668C211.368 125.668 209.84 126.744 209.84 128.496C209.84 130.446 211.832 131.324 214.884 132.065C222.444 133.681 225.496 137.25 225.496 141.157C225.496 147.406 220.983 151.241 213.622 151.241Z" fill="white"/>
<path d="M122.064 20.543H113.044V39.5555H122.064V20.543Z" fill="white"/>
<path d="M122.064 59.5977H113.044V78.6102H122.064V59.5977Z" fill="white"/>
<path d="M122.064 45.1094H113.044V54.0797H122.064V45.1094Z" fill="#FFCA00"/>
<path d="M107.573 36.1797H98.5522V99.3788H107.573V36.1797Z" fill="white"/>
<path d="M136.256 75.2852H127.235V94.2977H136.256V75.2852Z" fill="white"/>
<path d="M136.256 36.1992H127.235V55.2118H136.256V36.1992Z" fill="white"/>
<path d="M136.256 60.7617H127.235V69.7321H136.256V60.7617Z" fill="#E70488"/>
<path d="M150.444 15.5938H141.423V78.7928H150.444V15.5938Z" fill="white"/>
</svg>
