<svg width="40" height="40" viewBox="0 0 40 40" fill="none" xmlns="http://www.w3.org/2000/svg">
<path d="M16.2425 38.0518L15.2336 39.1693C13.5178 38.7497 11.8897 38.1063 10.3819 37.2715L10.4643 35.6584C10.6315 32.3842 8.08044 29.8427 4.81535 30.0095L2.96624 30.1039C2.11845 28.689 1.44262 27.1596 0.967442 25.5445L2.42196 24.2313C4.85544 22.0343 4.84865 18.4333 2.42196 16.2425L0.838914 14.8133C1.26046 13.2409 1.87099 11.7457 2.64479 10.3534L4.81535 10.4643C8.08959 10.6315 10.6311 8.08044 10.4643 4.81535L10.3534 2.64479C11.7457 1.87099 13.2409 1.26046 14.8133 0.838914L16.2425 2.42196C18.4395 4.85544 22.0405 4.84865 24.2313 2.42196L25.5445 0.967442C27.1596 1.44262 28.689 2.11845 30.1039 2.96624L30.0095 4.81535C29.8422 8.08959 32.3933 10.6311 35.6584 10.4643L37.2715 10.3819C38.1063 11.8897 38.7497 13.5178 39.1693 15.2336L38.0518 16.2425C35.6183 18.4395 35.6251 22.0405 38.0518 24.2313L39.0495 25.132C38.5741 26.8887 37.8627 28.5485 36.9513 30.0755L35.6584 30.0095C32.3842 29.8422 29.8427 32.3933 30.0095 35.6584L30.0755 36.9513C28.5485 37.8627 26.8887 38.5741 25.132 39.0495L24.2313 38.0518C22.0343 35.6183 18.4333 35.6251 16.2425 38.0518ZM19.9503 29.2563C25.0899 29.2563 29.2563 25.0899 29.2563 19.9503C29.2563 14.8107 25.0899 10.6442 19.9503 10.6442C14.8107 10.6442 10.6442 14.8107 10.6442 19.9503C10.6442 25.0899 14.8107 29.2563 19.9503 29.2563Z" stroke="#9D6CFF" stroke-width="1.5"/>
</svg>
