<svg width="75" height="76" viewBox="0 0 75 76" fill="none" xmlns="http://www.w3.org/2000/svg">
<rect y="0.5" width="75" height="75" rx="15" fill="white" fill-opacity="0.1"/>
<path d="M43.4286 28.5H32C26.4772 28.5 22 32.9772 22 38.5C22 44.0228 26.4772 48.5 32 48.5H43.4286C48.9514 48.5 53.4286 44.0228 53.4286 38.5C53.4286 32.9772 48.9514 28.5 43.4286 28.5Z" stroke="#9D6CFF" stroke-width="3" stroke-linecap="round" stroke-linejoin="round"/>
<path d="M32.0001 42.7863C34.367 42.7863 36.2858 40.8675 36.2858 38.5006C36.2858 36.1336 34.367 34.2148 32.0001 34.2148C29.6331 34.2148 27.7144 36.1336 27.7144 38.5006C27.7144 40.8675 29.6331 42.7863 32.0001 42.7863Z" stroke="#9D6CFF" stroke-width="3" stroke-linecap="round" stroke-linejoin="round"/>
</svg>
