<svg width="75" height="76" viewBox="0 0 75 76" fill="none" xmlns="http://www.w3.org/2000/svg">
<rect y="0.5" width="75" height="75" rx="15" fill="white" fill-opacity="0.1"/>
<path d="M43 28H45.5C46.163 28 46.7989 28.2634 47.2678 28.7322C47.7366 29.2011 48 29.837 48 30.5V48C48 48.663 47.7366 49.2989 47.2678 49.7678C46.7989 50.2366 46.163 50.5 45.5 50.5H30.5C29.837 50.5 29.2011 50.2366 28.7322 49.7678C28.2634 49.2989 28 48.663 28 48V30.5C28 29.837 28.2634 29.2011 28.7322 28.7322C29.2011 28.2634 29.837 28 30.5 28H33" stroke="#9D6CFF" stroke-width="3" stroke-linecap="round" stroke-linejoin="round"/>
<path d="M41.75 25.5H34.25C33.5596 25.5 33 26.0596 33 26.75V29.25C33 29.9404 33.5596 30.5 34.25 30.5H41.75C42.4404 30.5 43 29.9404 43 29.25V26.75C43 26.0596 42.4404 25.5 41.75 25.5Z" stroke="#9D6CFF" stroke-width="3" stroke-linecap="round" stroke-linejoin="round"/>
</svg>
