<svg width="75" height="75" viewBox="0 0 75 75" fill="none" xmlns="http://www.w3.org/2000/svg">
<rect width="75" height="75" rx="15" fill="white" fill-opacity="0.1"/>
<path d="M53.25 37.5H22" stroke="#9D6CFF" stroke-width="3.125" stroke-linecap="round" stroke-linejoin="round"/>
<path d="M27.3906 26.7344L22 37.5V46.875C22 47.7038 22.3292 48.4987 22.9153 49.0847C23.5013 49.6708 24.2962 50 25.125 50H50.125C50.9538 50 51.7487 49.6708 52.3347 49.0847C52.9208 48.4987 53.25 47.7038 53.25 46.875V37.5L47.8594 26.7344C47.6007 26.2137 47.2018 25.7756 46.7077 25.4692C46.2136 25.1628 45.6439 25.0003 45.0625 25H30.1875C29.6061 25.0003 29.0364 25.1628 28.5423 25.4692C28.0482 25.7756 27.6493 26.2137 27.3906 26.7344Z" fill="white" fill-opacity="0.1" stroke="#9D6CFF" stroke-width="3.125" stroke-linecap="round" stroke-linejoin="round"/>
<path d="M28.25 43.75H28.265" stroke="#9D6CFF" stroke-width="3.125" stroke-linecap="round" stroke-linejoin="round"/>
<path d="M34.5 43.75H34.515" stroke="#9D6CFF" stroke-width="3.125" stroke-linecap="round" stroke-linejoin="round"/>
</svg>
