<svg width="75" height="76" viewBox="0 0 75 76" fill="none" xmlns="http://www.w3.org/2000/svg">
<rect y="0.265625" width="75" height="75" rx="15" fill="white" fill-opacity="0.1"/>
<path fill-rule="evenodd" clip-rule="evenodd" d="M58 21.4656C58 19.7008 56.5648 18.2656 54.8 18.2656H21.2C19.4352 18.2656 18 19.7008 18 21.4656V55.0656C18 56.8304 19.4352 58.2656 21.2 58.2656H54.8C56.5648 58.2656 58 56.8304 58 55.0656V21.4656ZM37.2 29.4656V37.4656H29.2V29.4656H37.2ZM46.8 29.4656V37.4656H38.8V29.4656H46.8ZM56.4 29.4656V37.4656H48.4V29.4656H56.4ZM27.6 37.4656H19.6V29.4656H27.6V37.4656ZM19.6 39.0656H27.6V47.0656H19.6V39.0656ZM29.2 39.0656H37.2V47.0656H29.2V39.0656ZM37.2 48.6656V56.6656H29.2V48.6656H37.2ZM38.8 48.6656H46.8V56.6656H38.8V48.6656ZM38.8 47.0656V39.0656H46.8V47.0656H38.8ZM48.4 39.0656H56.4V47.0656H48.4V39.0656ZM21.2 19.8656H54.8C55.6824 19.8656 56.4 20.5832 56.4 21.4656V27.8656H19.6V21.4656C19.6 20.5832 20.3176 19.8656 21.2 19.8656ZM19.6 55.0656V48.6656H27.6V56.6656H21.2C20.3176 56.6656 19.6 55.948 19.6 55.0656ZM54.8 56.6656H48.4V48.6656H56.4V55.0656C56.4 55.948 55.6824 56.6656 54.8 56.6656Z" fill="#9D6CFF"/>
</svg>
