<svg width="75" height="75" viewBox="0 0 75 75" fill="none" xmlns="http://www.w3.org/2000/svg">
<rect width="75" height="75" rx="15" fill="white" fill-opacity="0.1"/>
<path d="M25.1852 25.5926C25.1852 26.5648 24.7531 27.3075 23.8889 27.8206V53.463C23.8889 53.6385 23.8247 53.7904 23.6965 53.9187C23.5682 54.047 23.4163 54.1111 23.2407 54.1111H21.9444C21.7689 54.1111 21.617 54.047 21.4887 53.9187C21.3604 53.7904 21.2963 53.6385 21.2963 53.463V27.8206C20.4321 27.3075 20 26.5648 20 25.5926C20 24.8769 20.2532 24.2659 20.7595 23.7595C21.2659 23.2532 21.8769 23 22.5926 23C23.3083 23 23.9193 23.2532 24.4256 23.7595C24.932 24.2659 25.1852 24.8769 25.1852 25.5926ZM55 26.8889V42.3432C55 42.6807 54.9156 42.9407 54.7468 43.123C54.578 43.3053 54.3113 43.4909 53.9468 43.68C51.0436 45.2463 48.5523 46.0295 46.4728 46.0295C45.6491 46.0295 44.8153 45.881 43.9714 45.5839C43.1274 45.2868 42.3949 44.9628 41.7737 44.6117C41.1526 44.2606 40.3728 43.9365 39.4343 43.6395C38.4959 43.3424 37.5338 43.1939 36.548 43.1939C33.9554 43.1939 30.8227 44.1796 27.1499 46.151C26.9203 46.2726 26.6975 46.3333 26.4815 46.3333C26.1304 46.3333 25.8266 46.2051 25.57 45.9485C25.3135 45.6919 25.1852 45.3881 25.1852 45.037V30.0081C25.1852 29.576 25.3945 29.2047 25.8131 28.8941C26.0966 28.7051 26.63 28.4147 27.4132 28.0231C30.5999 26.4028 33.4423 25.5926 35.9404 25.5926C37.3852 25.5926 38.7355 25.7884 39.9913 26.18C41.2471 26.5716 42.7257 27.1657 44.4271 27.9624C44.9402 28.2189 45.5343 28.3472 46.2095 28.3472C46.9387 28.3472 47.732 28.2054 48.5894 27.9219C49.4469 27.6383 50.1895 27.321 50.8174 26.9699C51.4453 26.6188 52.0394 26.3015 52.5998 26.0179C53.1602 25.7344 53.5282 25.5926 53.7037 25.5926C54.0548 25.5926 54.3586 25.7209 54.6152 25.9774C54.8717 26.234 55 26.5378 55 26.8889Z" fill="#9D6CFF"/>
</svg>
