<svg width="75" height="76" viewBox="0 0 75 76" fill="none" xmlns="http://www.w3.org/2000/svg">
<rect y="0.765625" width="75" height="75" rx="15" fill="white" fill-opacity="0.1"/>
<path d="M45.2875 23.7656C42.4315 23.7656 39.748 24.5432 37.5 26.0165C35.1623 24.5603 32.4666 23.7812 29.7125 23.7656C21.5772 23.7656 15 30.3429 15 38.4781C15 46.6134 21.5772 53.1907 29.7125 53.1907C32.5685 53.1907 35.252 52.413 37.5 50.9398C39.7508 52.3254 42.4315 53.1907 45.2875 53.1907C53.4228 53.1907 60 46.6134 60 38.4781C60 30.3429 53.4228 23.7656 45.2875 23.7656ZM37.5 29.2174C38.0203 29.6501 38.5378 30.1704 38.9704 30.6878H36.0296C36.4622 30.1704 36.9825 29.6501 37.5 29.2174ZM33.9512 42.8045H40.9611C40.7241 43.4057 40.4346 43.9848 40.0958 44.5351H34.7317C34.4715 44.0176 34.2114 43.4097 33.9512 42.8045ZM33.4338 35.8823H41.4814C41.5691 36.4026 41.6539 37.0077 41.7415 37.6129H33.1736C33.2613 37.0077 33.3461 36.4026 33.4338 35.8823ZM33.2613 39.3434H41.8292C41.8292 39.9485 41.7415 40.5537 41.5691 41.074H33.5186C33.3428 40.5141 33.2559 39.9302 33.2613 39.3434ZM41.0488 34.1518H34.0389C34.299 33.5466 34.5592 32.9415 34.9042 32.4212H40.2683C40.5285 32.9387 40.7886 33.5466 41.0488 34.1518ZM29.7125 50.592C23.0505 50.592 17.5987 45.1402 17.5987 38.4781C17.5987 31.8161 23.0505 26.3643 29.7125 26.3643C31.7032 26.3643 33.6063 26.8846 35.252 27.7499C32.396 30.4305 30.5778 34.2366 30.5778 38.4781C30.5778 42.7197 32.396 46.5258 35.252 49.2093C33.5445 50.1113 31.6436 50.5858 29.7125 50.592ZM37.5 47.7389C36.9677 47.2928 36.4757 46.8008 36.0296 46.2685H38.9732C38.5254 46.8001 38.0325 47.2921 37.5 47.7389Z" fill="#9D6CFF"/>
</svg>
