<svg width="75" height="76" viewBox="0 0 75 76" fill="none" xmlns="http://www.w3.org/2000/svg">
<rect y="0.765625" width="75" height="75" rx="15" fill="white" fill-opacity="0.1"/>
<path d="M30.5 41.2656H40.5V43.7656H30.5V41.2656Z" fill="#9D6CFF"/>
<path d="M30.5 35.0156H45.5V37.5156H30.5V35.0156Z" fill="#9D6CFF"/>
<path d="M30.5 47.5156H36.75V50.0156H30.5V47.5156Z" fill="#9D6CFF"/>
<path d="M49.25 25.0156H45.5V23.7656C45.5 23.1026 45.2366 22.4667 44.7678 21.9979C44.2989 21.529 43.663 21.2656 43 21.2656H33C32.337 21.2656 31.7011 21.529 31.2322 21.9979C30.7634 22.4667 30.5 23.1026 30.5 23.7656V25.0156H26.75C26.087 25.0156 25.4511 25.279 24.9822 25.7479C24.5134 26.2167 24.25 26.8526 24.25 27.5156V53.7656C24.25 54.4287 24.5134 55.0646 24.9822 55.5334C25.4511 56.0022 26.087 56.2656 26.75 56.2656H49.25C49.913 56.2656 50.5489 56.0022 51.0178 55.5334C51.4866 55.0646 51.75 54.4287 51.75 53.7656V27.5156C51.75 26.8526 51.4866 26.2167 51.0178 25.7479C50.5489 25.279 49.913 25.0156 49.25 25.0156ZM33 23.7656H43V28.7656H33V23.7656ZM49.25 53.7656H26.75V27.5156H30.5V31.2656H45.5V27.5156H49.25V53.7656Z" fill="#9D6CFF"/>
</svg>
